<?xml version="1.0" encoding="UTF-8"?>
<svg xmlns="http://www.w3.org/2000/svg" xmlns:xlink="http://www.w3.org/1999/xlink" version="1.1" viewBox="0 0 516.7 294.5">
  <!-- Generator: Adobe Illustrator 30.0.0, SVG Export Plug-In . SVG Version: 2.1.1 Build 123)  -->
  <defs>
    <style>
      .st0, .st1, .st2 {
        fill: none;
      }

      .st3, .st4, .st5 {
        font-family: MyriadPro-Bold, 'MyriadPro Bold';
        font-weight: 700;
      }

      .st1 {
        stroke-linecap: round;
        stroke-linejoin: round;
      }

      .st1, .st2 {
        stroke: #000;
      }

      .st6 {
        isolation: isolate;
      }

      .st7 {
        fill: #778bff;
      }

      .st8 {
        clip-path: url(#clippath-1);
      }

      .st9 {
        clip-path: url(#clippath-3);
      }

      .st10 {
        clip-path: url(#clippath-2);
      }

      .st11 {
        fill: #daff00;
      }

      .st12 {
        font-family: MyriadPro-Regular, 'Myriad Pro';
      }

      .st13 {
        font-size: 15.9px;
      }

      .st14 {
        fill: #12ffe8;
      }

      .st4 {
        letter-spacing: 0em;
      }

      .st2 {
        stroke-miterlimit: 10;
      }

      .st5 {
        letter-spacing: 0em;
      }

      .st15 {
        fill: #00e8a0;
      }

      .st16 {
        clip-path: url(#clippath);
      }

      .st17 {
        fill: #ff931d;
      }
    </style>
    <clipPath id="clippath">
      <polygon class="st0" points="926 -303.6 925.5 -455 1057.3 -531.1 1057.7 -379.7 926 -303.6"/>
    </clipPath>
    <clipPath id="clippath-1">
      <polygon class="st0" points="980.8 -303.6 980.4 -455 1112.2 -531.1 1112.6 -379.7 980.8 -303.6"/>
    </clipPath>
    <clipPath id="clippath-2">
      <polygon class="st0" points="1035.7 -303.6 1035.3 -455 1167.1 -531.1 1167.5 -379.7 1035.7 -303.6"/>
    </clipPath>
    <clipPath id="clippath-3">
      <polygon class="st0" points="1090.6 -303.6 1090.2 -455 1221.9 -531.1 1222.4 -379.7 1090.6 -303.6"/>
    </clipPath>
  </defs>
  <g id="Layer_1">
    <rect class="st15" x="-647.2" y="8.8" width="374.4" height="661.7" rx="19" ry="19"/>
    <circle class="st11" cx="-460" cy="339.7" r="144.1"/>
    <circle class="st7" cx="-252" cy="156.2" r="144.1"/>
    <circle class="st14" cx="-334.3" cy="595.5" r="144.1"/>
    <circle class="st17" cx="-668" cy="3.8" r="144.1"/>
    <circle cx="-455.4" cy="2.1" r="49.9"/>
    <g id="qZ0JnK">
      <image id="qZ0JnK1" data-name="qZ0JnK" width="730" height="832" transform="translate(-74.2 -723.5) scale(.5)" xlink:href="logo-mos-1.png"/>
    </g>
    <g>
      <path d="M207.9,16.8c-.3-4.6-1.6-8-4-10.2-2.4-2.2-5.9-3.3-10.6-3.3h-58.8c-9.2,0-14.1,4.5-14.6,13.5l-9.9,174.7-13.9-174.7c-.6-9-5.3-13.5-14.2-13.5H23.8c-4.5,0-7.9,1.1-10.4,3.3-2.5,2.2-3.9,5.6-4.2,10.2L0,275.3c-.3,4.6.9,8.2,3.5,10.6,2.6,2.5,6.2,3.7,10.6,3.7h35.9c4.4,0,7.9-1.3,10.4-3.9,2.5-2.6,3.6-6.1,3.3-10.4l-6.3-204.1h8.4l9.9,158.3c.6,9,5.4,13.5,14.6,13.5h38.4c9.7,0,14.7-4.5,15-13.5l8.2-158.3h8.5l-5,204.1c0,4.6,1.3,8.2,3.8,10.6s6,3.7,10.4,3.7h35.9c4.7,0,8.4-1.3,11.1-3.9,2.6-2.6,3.8-6.2,3.5-10.8l-12.5-258.1Z"/>
      <path d="M265.1,1.2c-10.9,0-18.5,2.7-23,8-4.5,5.3-6.7,13-6.7,23.1v228.3c0,9.8,2.2,17.5,6.7,22.9,4.4,5.5,12,8.2,22.5,8.2s18.2-2.7,23-8.2c4.7-5.5,7.1-13.1,7.1-22.9V32.3c0-10.1-2.4-17.8-7.1-23.1-4.7-5.3-12.2-8-22.5-8ZM277.6,261.4c0,5.2-1,9.1-2.9,11.7-1.9,2.6-5.3,3.9-10,3.9s-8.5-1.3-10.4-3.9c-2-2.6-2.9-6.3-2.9-11.2V31.5c0-5.2,1-9.1,2.9-11.7,1.9-2.6,5.4-3.9,10.4-3.9s8.1,1.3,10,3.9c1.9,2.6,2.9,6.5,2.9,11.7v229.9Z"/>
      <path d="M376.9,0c-21.7,0-37.5,5.3-47.4,16-9.9,10.6-14.8,25.4-14.8,44.2v45.8c0,12.8,3,23.5,9,31.9,6,8.5,16.1,15.7,30.3,21.7l17.1,7c11.4,5.2,19,9.9,22.7,14.1,3.8,4.2,5.6,10.8,5.6,19.8v34c0,9.8-1.7,16.7-5.2,20.7-3.5,4-9.3,5.9-17.3,5.9s-13-2-16.5-6.1c-3.5-4.1-5.2-10.9-5.2-20.5v-40.5c0-2.7-.8-4.9-2.5-6.5-1.7-1.6-4-2.5-7.1-2.5h-21.3c-2.8,0-5.1.8-6.9,2.5-1.8,1.6-2.7,3.8-2.7,6.5v41.3c0,18.5,4.9,33.1,14.8,43.6,9.9,10.5,25.7,15.7,47.4,15.7s38.3-5.2,48-15.7c9.7-10.5,14.6-25,14.6-43.6v-42.1c0-12.5-2.9-23-8.8-31.3-5.8-8.3-16-15.6-30.5-21.9l-16.3-7c-11.7-5.2-19.4-9.9-23.2-14.1-3.8-4.2-5.6-10.8-5.6-19.8v-38.9c0-9.8,1.7-16.7,5.2-20.7,3.5-4,9-5.9,16.5-5.9s13.8,2,17.3,6.1c3.5,4.1,5.2,10.9,5.2,20.5v48.3c0,2.7.8,5,2.5,6.7,1.7,1.8,3.9,2.7,6.7,2.7h22.1c3.1,0,5.3-.9,6.7-2.7,1.4-1.8,2.1-4,2.1-6.7v-48.3c0-18.8-4.9-33.5-14.6-44.2-9.7-10.6-25.7-16-48-16Z"/>
      <path d="M512.8,226c-2.6-2.6-6.3-3.9-11.1-3.9h-38.8c-4.5,0-8,1.3-10.6,3.9-2.6,2.6-4,6.2-4,10.8v38c0,4.6,1.3,8.3,4,10.8,2.6,2.6,6.2,3.9,10.6,3.9h38.8c4.7,0,8.4-1.3,11.1-3.9,2.6-2.6,4-6.2,4-10.8v-38c0-4.6-1.3-8.2-4-10.8Z"/>
      <path d="M456.6,193.1c.6,8.2,4.7,12.3,12.5,12.3h26.3c7.8,0,12-4.1,12.5-12.3l8.3-177.9c.3-3.8-.8-6.8-3.1-9-2.4-2.2-5.5-3.3-9.4-3.3h-43c-3.9,0-7,1.1-9.4,3.3-2.4,2.2-3.4,5.2-3.1,9l8.3,177.9Z"/>
    </g>
    <g>
      <path d="M-389-560.2c-.5-.5-.8-1.2-.8-2.1l1.7-113.9c0-.9.3-1.6.8-2.1.5-.5,1.3-.8,2.4-.8h11.9c1.9,0,2.8,1,3,2.9l.7,9.1h-9.4l1.4,104.8c0,.9-.3,1.6-.8,2.1-.5.5-1.3.8-2.2.8h-6.3c-1,0-1.8-.3-2.4-.8ZM-372.3-587l-5.1-92.2h4.4c2,0,3,1,3.1,2.9l4.9,87.7h-.9l4.2-87.7c.2-1.9,1.2-2.9,3-2.9h4.7l-4.7,92c-.1,2.1-1.2,3.1-3.1,3.1h-7.5c-1.7,0-2.7-1-3-2.9ZM-352.8-560.2c-.5-.5-.7-1.2-.7-2.1l1-104.8h-9.6l.3-9.1c0-.9.3-1.6.9-2.1.6-.5,1.3-.8,2.3-.8h12.2c1,0,1.8.3,2.3.8.5.5.7,1.2.7,2.1l2.1,113.7c0,1-.3,1.8-.8,2.3-.5.5-1.3.8-2.2.8h-6.3c-1,0-1.8-.3-2.3-.8Z"/>
      <path d="M-325.8-567.7c-6-6.8-9-16.4-9-28.7v-45.5c0-12.3,3-21.9,9-28.7,6-6.8,16-10.3,30.1-10.3s24.1,3.4,30.1,10.3c6,6.8,9,16.4,9,28.7v45.5c0,12.3-3,21.9-9,28.7-6,6.8-16,10.3-30.1,10.3s-24.1-3.4-30.1-10.3ZM-290.3-587.8c1-1.3,1.6-3.4,1.6-6.4v-49.8c0-3-.5-5.1-1.6-6.5-1-1.4-2.9-2.1-5.4-2.1s-4.4.7-5.4,2.1-1.6,3.5-1.6,6.5v49.8c0,2.9.5,5,1.6,6.3s2.8,2.1,5.4,2.1,4.4-.7,5.4-2Z"/>
      <path d="M-242.8-566c-5.5-5.7-8.2-13.4-8.2-23.1v-7.2c0-1.9.6-3.4,1.7-4.4,1.1-1,2.6-1.5,4.4-1.5h16.1c1.9,0,3.3.5,4.4,1.5,1,1,1.6,2.5,1.6,4.4v6.5c0,3.4.6,5.8,1.7,7.3,1.2,1.4,3.1,2.1,5.8,2.1s4.8-.7,5.9-2.1c1.2-1.4,1.7-3.8,1.7-7.3v-5.1c0-3.3-.8-5.8-2.5-7.4-1.7-1.7-5.1-3.5-10.4-5.6l-9.9-3.8c-7.3-2.7-12.6-6.3-15.8-10.6-3.2-4.3-4.8-9.8-4.8-16.4v-10.1c0-9.7,2.8-17.5,8.3-23.3,5.5-5.9,14.7-8.8,27.5-8.8s22,2.9,27.6,8.7c5.6,5.8,8.4,13.6,8.4,23.4v8.6c0,1.8-.6,3.3-1.7,4.4-1.2,1.1-2.7,1.6-4.5,1.6h-15.9c-2.1,0-3.6-.5-4.6-1.6-1-1.1-1.5-2.5-1.5-4.4v-8.6c0-3.2-.6-5.5-1.7-6.9-1.2-1.4-3.1-2.1-5.9-2.1s-4.7.7-5.8,2.1c-1.1,1.4-1.7,3.7-1.7,7v6c0,3.2.9,5.6,2.6,7.2,1.7,1.6,5.2,3.4,10.5,5.5l9.9,3.8c7.1,3,12.2,6.6,15.4,10.9,3.2,4.3,4.8,9.7,4.8,16.3v10.3c0,9.6-2.8,17.2-8.4,22.9-5.6,5.7-14.7,8.6-27.4,8.6s-21.9-2.8-27.4-8.6Z"/>
      <path d="M-173.2-560.1c-.5-.4-.7-1-.7-1.8v-10.4c0-.8.2-1.4.7-1.8.5-.4,1.1-.6,1.9-.6h4.9c.9,0,1.6.2,2,.6.4.4.6,1,.6,1.8v10.4c0,.8-.2,1.4-.6,1.8-.4.4-1.1.6-2,.6h-4.9c-.8,0-1.5-.2-1.9-.6ZM-172.7-594.7l-1-82.4c0-.7.2-1.2.5-1.5s.9-.5,1.6-.5h5.6c.7,0,1.2.2,1.7.5.4.3.6.9.6,1.5l-1.2,82.4c0,1.5-.7,2.2-2.1,2.2h-3.3c-1.4,0-2.2-.7-2.3-2.2Z"/>
    </g>
    <g>
      <path d="M-358.4-424.2c-.2-.2-.3-.6-.3-1v-117c0-.5.1-.8.3-1,.2-.2.6-.3,1-.3h5.8c1,0,1.6.5,1.6,1.5l.2,1.9h-5.2l.2,114.9c0,.5-.1.8-.3,1-.2.2-.6.3-1,.3h-1c-.5,0-.8-.1-1-.3ZM-345.1-451.1l-8.4-92.5h2.1c1,0,1.6.5,1.7,1.5l7.3,89.5h-.9l7.3-89.5c.1-1,.7-1.5,1.7-1.5h2.1l-8.6,92.5c0,.8-.5,1.2-1.6,1.2h-1.4c-1,0-1.6-.4-1.6-1.2ZM-330.4-424.2c-.2-.2-.3-.6-.3-1l.2-114.9h-5.1v-1.9c0-.5.1-.8.4-1.1.3-.3.7-.4,1.3-.4h5.6c.5,0,.8.1,1,.3.2.2.3.6.3,1l.2,117c0,.5-.1.8-.3,1-.2.2-.6.3-1,.3h-1.2c-.5,0-.8-.1-1-.3Z"/>
      <path d="M-312.5-427.9c-3.1-3.6-4.7-8.6-4.7-15v-81.8c0-6.5,1.6-11.5,4.7-15.1,3.1-3.5,8.4-5.3,15.7-5.3s12.4,1.8,15.6,5.3c3.2,3.5,4.8,8.6,4.8,15.1v81.8c0,6.4-1.6,11.4-4.8,15-3.2,3.6-8.4,5.4-15.6,5.4s-12.6-1.8-15.7-5.4ZM-293.8-438.2c.6-.7.9-1.9.9-3.5v-84c0-1.6-.3-2.8-.9-3.6-.6-.8-1.6-1.2-3-1.2s-2.6.4-3.1,1.2c-.6.8-.9,2-.9,3.6v84c0,1.6.3,2.8.9,3.5.6.7,1.6,1.1,3.1,1.1s2.4-.4,3-1.1Z"/>
      <path d="M-264-429.3c-4.7-5-7-11.9-7-20.8v-10.3c0-1.8.5-3.2,1.6-4.3,1-1,2.4-1.5,4.2-1.5h14.8c1.9,0,3.3.5,4.3,1.5,1,1,1.5,2.5,1.5,4.3v11.1c0,1.7.3,2.9,1,3.7.6.7,1.6,1.1,2.9,1.1s2.6-.4,3.1-1.1c.6-.7.9-2,.9-3.7v-13.5c0-2.5-.6-4.5-1.9-5.9-1.3-1.4-3.6-2.8-7-4l-7.3-2.7c-6.2-2.3-10.7-5.5-13.5-9.6-2.9-4.1-4.3-9.3-4.3-15.6v-16.4c0-8.9,2.3-15.8,6.9-20.9,4.6-5,12.4-7.5,23.3-7.5s18.6,2.5,23.2,7.5c4.7,5,7,12,7,20.9v11.1c0,1.8-.5,3.2-1.6,4.2-1,1-2.4,1.5-4.2,1.5h-14.8c-1.9,0-3.3-.5-4.3-1.5-1-1-1.5-2.4-1.5-4.2v-12.3c0-1.7-.3-2.9-1-3.7-.6-.7-1.6-1.1-2.9-1.1s-2.6.4-3.1,1.1c-.6.7-.9,2-.9,3.7v13.9c0,2.5.7,4.5,2,5.9,1.3,1.4,3.6,2.8,6.9,4l7.3,2.7c6.2,2.3,10.7,5.5,13.5,9.6,2.8,4.1,4.3,9.3,4.3,15.6v16.6c0,8.7-2.3,15.5-6.9,20.5-4.6,5-12.4,7.5-23.3,7.5s-18.6-2.5-23.2-7.4Z"/>
      <path d="M-205-424.7c-.6-.6-.9-1.3-.9-2.2v-11.8c0-1,.3-1.8.9-2.3.6-.5,1.5-.8,2.6-.8h7.2c1,0,1.8.3,2.4.8.5.5.8,1.3.8,2.3v11.8c0,.9-.3,1.7-.8,2.2-.5.6-1.3.9-2.4.9h-7.2c-1.2,0-2-.3-2.6-.9ZM-204.3-460.1l-1.4-81.1c-.1-.8,0-1.4.6-1.9.5-.5,1.2-.7,2-.7h8.4c.8,0,1.5.2,2,.7.5.5.8,1.1.8,1.9l-1.6,81.1c-.1,1.8-1,2.7-2.8,2.7h-5.2c-1.7,0-2.7-.9-2.8-2.7Z"/>
    </g>
    <path d="M871.5-736.8c-1.8-1.6-2.6-4-2.4-7l5.7-132.1c.1-3.2,1.1-5.4,2.9-6.9,1.8-1.4,4.1-2.2,7-2.2h38.6c6,0,9.2,3,9.7,9l2,29.5h-29l4.2,102.6c.1,2.9-.6,5.2-2.2,6.9-1.6,1.7-4,2.6-7,2.6h-22.4c-2.9,0-5.3-.8-7-2.5ZM920.1-760.5l-12.5-124.4h16c5.7,0,8.9,3,9.4,9l11.6,108.4h-2.4l8.8-108.4c.4-6,3.7-9,9.7-9h17.1l-11,124.4c-.4,6.2-3.8,9.3-10.1,9.3h-26.8c-6,0-9.3-3.1-9.9-9.3ZM978.8-736.7c-1.7-1.6-2.5-3.9-2.3-7.1l3.3-102.6h-29.9l1.5-29c.1-3.2,1.1-5.5,2.7-7.1,1.7-1.6,4-2.4,6.9-2.4h39.3c3.1,0,5.4.8,7,2.3,1.6,1.5,2.5,3.8,2.6,6.8l7.7,131.9c.1,3-.7,5.4-2.4,7.1-1.8,1.7-4.2,2.6-7.2,2.6h-22.4c-2.9,0-5.2-.8-6.9-2.4Z"/>
    <path d="M1028.4-739.2c-3.7-4.3-5.6-10.3-5.6-18.1v-104.4c0-7.9,1.9-14,5.6-18.3,3.7-4.3,9.9-6.5,18.5-6.5s14.4,2.2,18.1,6.5c3.7,4.3,5.6,10.4,5.6,18.3v104.4c0,7.7-1.9,13.8-5.6,18.1-3.7,4.3-9.8,6.5-18.1,6.5s-14.8-2.2-18.5-6.5ZM1053.9-748.5c1.4-1.7,2.1-4.4,2.1-8.2v-105.6c0-4-.7-6.9-2-8.6-1.3-1.7-3.7-2.6-7-2.6s-6.1.9-7.5,2.6c-1.3,1.7-2,4.6-2,8.6v105.6c0,3.7.6,6.5,1.9,8.2,1.2,1.7,3.7,2.6,7.4,2.6s5.7-.9,7.1-2.6Z"/>
    <path d="M1088.5-739.2c-3.7-4.3-5.6-10.3-5.6-18.1v-104.4c0-7.9,1.9-14,5.6-18.3,3.7-4.3,9.9-6.5,18.5-6.5s14.4,2.2,18.1,6.5c3.7,4.3,5.6,10.4,5.6,18.3v104.4c0,7.7-1.9,13.8-5.6,18.1-3.7,4.3-9.8,6.5-18.1,6.5s-14.8-2.2-18.5-6.5ZM1113.9-748.5c1.4-1.7,2.1-4.4,2.1-8.2v-105.6c0-4-.7-6.9-2-8.6-1.3-1.7-3.7-2.6-7-2.6s-6.1.9-7.5,2.6c-1.3,1.7-2,4.6-2,8.6v105.6c0,3.7.6,6.5,1.9,8.2,1.2,1.7,3.7,2.6,7.4,2.6s5.7-.9,7.1-2.6Z"/>
    <g>
      <path d="M1180.4-301.7c-.5-.5-.8-1.3-.8-2.3l1.1-144.8c0-.9.3-1.5.8-2,.5-.5,1.3-.8,2.3-.8h13.6c2.2,0,3.4,1.1,3.5,3.2l.4,7.3h-11.2l1.1,137.1c0,1-.3,1.8-.9,2.3-.6.5-1.4.8-2.4.8h-5.5c-.9,0-1.6-.2-2.1-.8ZM1203.3-334.3l-11.2-117.3h5.5c2.2,0,3.4,1.1,3.7,3.2l9.7,111.9h-1.8l9.7-111.9c.1-2.2,1.2-3.2,3.3-3.2h5.7l-11.4,117.5c0,2-1.1,3-3.3,3h-6.6c-1.9,0-3-1.1-3.3-3.2ZM1230-301.7c-.5-.5-.8-1.3-.8-2.3l.9-137.1h-11.4l.4-7.3c0-1.1.3-2,.9-2.5.6-.5,1.4-.8,2.4-.8h13.8c1,0,1.8.3,2.3.8.5.5.8,1.2.8,2l1.3,144.8c0,.9-.3,1.6-.8,2.2-.5.6-1.3.9-2.3.9h-5.5c-.9,0-1.6-.2-2.1-.8Z"/>
      <path d="M1259.4-306.6c-4.3-4.9-6.5-11.9-6.5-20.8v-97.3c0-9,2.2-16.1,6.5-21.1,4.3-5,11.5-7.5,21.6-7.5s17,2.5,21.3,7.5c4.2,5,6.4,12,6.4,21.1v97.3c0,8.9-2.2,15.8-6.5,20.8-4.3,4.9-11.4,7.4-21.2,7.4s-17.3-2.5-21.6-7.4ZM1287.5-318.9c1.2-1.5,1.9-4.1,1.9-7.9v-99.2c0-3.6-.6-6.2-1.9-7.7-1.2-1.6-3.4-2.4-6.5-2.4s-5.5.8-6.7,2.4c-1.2,1.6-1.9,4.2-1.9,7.7v99.4c0,3.6.6,6.1,1.9,7.6,1.2,1.5,3.5,2.3,6.7,2.3s5.2-.8,6.5-2.3Z"/>
      <path d="M1325.8-307c-5.1-5.5-7.7-13.3-7.7-23.3v-19.1c0-1.7.5-3,1.5-4,1-.9,2.5-1.4,4.4-1.4h14c1.8,0,3.2.5,4.3,1.4,1.1.9,1.6,2.3,1.6,4v19.8c0,3.3.5,5.7,1.6,7.3,1.1,1.6,3,2.4,5.8,2.4s4.5-.8,5.7-2.3c1.2-1.5,1.8-4,1.8-7.4v-20.7c0-3.7-.8-6.5-2.5-8.4-1.7-1.9-4.9-3.7-9.5-5.6l-8.6-3.7c-7.2-2.6-12.3-6.1-15.5-10.5-3.1-4.4-4.7-10.2-4.7-17.2v-25.8c0-9.9,2.6-17.7,7.7-23.3,5.1-5.7,13.6-8.5,25.5-8.5s20.7,2.8,25.8,8.5c5,5.7,7.6,13.4,7.6,23.3v21.7c0,1.7-.5,3.1-1.5,4.2-1,1.1-2.5,1.6-4.4,1.6h-14c-1.8,0-3.2-.5-4.3-1.6-1.1-1.1-1.6-2.5-1.6-4.2v-22.4c0-3.3-.5-5.7-1.6-7.1-1.1-1.4-3-2.2-5.8-2.2s-4.4.7-5.6,2c-1.2,1.4-1.9,3.8-1.9,7.2v22.8c0,3.4.9,6.1,2.6,8.1,1.8,1.9,4.9,3.8,9.4,5.7l8.6,3.2c7.2,2.7,12.3,6.4,15.5,11,3.1,4.6,4.7,10.3,4.7,17v24.3c0,9.9-2.5,17.6-7.6,23.1-5,5.5-13.6,8.3-25.6,8.3s-20.6-2.8-25.7-8.3Z"/>
      <path d="M1389.4-302.9c-1.4-1.4-2.1-3.2-2.1-5.5v-20c0-2.4.7-4.3,2.1-5.6,1.4-1.3,3.3-1.9,5.6-1.9h20.4c2.5,0,4.4.6,5.8,1.9,1.4,1.3,2.1,3.2,2.1,5.6v20c0,2.3-.7,4.1-2.1,5.5-1.4,1.4-3.3,2-5.8,2h-20.4c-2.3,0-4.2-.7-5.6-2ZM1391.9-351.7l-4.4-93.6c-.1-2,.4-3.6,1.6-4.7,1.2-1.1,2.9-1.7,4.9-1.7h22.2c2,0,3.7.6,4.9,1.7,1.2,1.1,1.8,2.7,1.6,4.7l-4.4,93.6c-.3,4.3-2.5,6.5-6.6,6.5h-13.4c-4.1,0-6.3-2.2-6.6-6.5Z"/>
    </g>
    <g>
      <path d="M927.3-463.5c-1.5-1.4-2.2-3.4-2.1-6l5-134.7c.1-2.7,1-4.7,2.4-5.9,1.5-1.2,3.5-1.8,6.1-1.8h32.9c5.1,0,7.8,2.6,8.1,7.7l2,28.8h-24.1l3.7,105.9c.1,2.6-.5,4.6-2,6-1.5,1.4-3.4,2.2-5.9,2.2h-20.2c-2.5,0-4.5-.7-6-2.2ZM968.7-491.5l-9-120.5h12.1c5.1,0,7.8,2.6,8.1,7.7l9.4,106.1h-2l6.8-106.1c.3-5.2,3.1-7.7,8.3-7.7h13l-7.7,120.5c-.1,5.5-3,8.2-8.6,8.2h-22.2c-5.1,0-7.9-2.7-8.3-8.2ZM1017.1-463.4c-1.4-1.4-2.1-3.4-2.1-6.1l3.1-105.9h-25l1.5-28.4c.1-2.7.9-4.8,2.3-6.1,1.4-1.4,3.3-2,5.8-2h33.6c2.6,0,4.6.6,6,1.9,1.4,1.3,2.2,3.2,2.3,5.8l6.6,134.5c.1,2.6-.5,4.6-2,6.1-1.5,1.5-3.5,2.3-6.1,2.3h-20.2c-2.5,0-4.4-.7-5.8-2Z"/>
      <path d="M1065.1-467.1c-4.3-4.9-6.5-11.9-6.5-20.8v-97.3c0-9,2.2-16.1,6.5-21.1,4.3-5,11.5-7.5,21.6-7.5s17,2.5,21.3,7.5c4.2,5,6.4,12,6.4,21.1v97.3c0,8.9-2.2,15.8-6.5,20.8-4.3,4.9-11.4,7.4-21.2,7.4s-17.3-2.5-21.6-7.4ZM1093.2-479.4c1.2-1.5,1.9-4.1,1.9-7.9v-99.2c0-3.6-.6-6.2-1.9-7.7-1.2-1.6-3.4-2.4-6.5-2.4s-5.5.8-6.7,2.4c-1.2,1.6-1.9,4.2-1.9,7.7v99.4c0,3.6.6,6.1,1.9,7.6,1.2,1.5,3.5,2.3,6.7,2.3s5.2-.8,6.5-2.3Z"/>
      <path d="M1130.6-465.3c-3.3-3.7-4.9-9.3-4.9-16.8v-31.6c0-1,.3-1.8.8-2.3.5-.5,1.2-.8,2.1-.8h5.7c.7,0,1.4.3,2,.8.6.5.9,1.3.9,2.3v31.8c0,4.4.7,7.6,2.2,9.6,1.5,1.9,4,2.9,7.5,2.9s6-1,7.6-2.9c1.5-1.9,2.3-5.1,2.3-9.6v-32.7c0-3.9-.8-6.8-2.3-8.7-1.5-1.9-4.5-4-8.9-6.1l-5.3-2.2c-5.1-2.3-8.8-5-11-8.1-2.2-3.1-3.3-7.2-3.3-12.4v-38.7c0-7.5,1.6-13.1,4.8-16.9,3.2-3.8,8.6-5.7,16-5.7s12.9,1.9,16.2,5.8c3.4,3.9,5,9.5,5,16.8v37c0,.7-.3,1.4-.8,1.9-.5.6-1.3.9-2.3.9h-5.5c-.9,0-1.6-.3-2.1-.9-.5-.6-.8-1.2-.8-1.9v-37.2c0-4.6-.8-7.8-2.3-9.7-1.5-1.9-4.1-2.8-7.6-2.8s-5.9.9-7.5,2.8c-1.6,1.9-2.4,5.1-2.4,9.7v37c0,4,.8,6.9,2.3,8.7,1.5,1.8,4.6,3.8,9.1,5.9l5.3,2.4c5.3,2.2,9,4.8,11.2,7.9,2.2,3.1,3.3,7.2,3.3,12.4v34.6c0,7.3-1.6,12.9-4.9,16.7-3.3,3.8-8.7,5.7-16.4,5.7s-12.8-1.9-16.1-5.6Z"/>
      <path d="M1177.9-504l-.7-106.3c0-.6.1-1,.4-1.3.3-.3.7-.4,1.3-.4h2c.6,0,1,.1,1.3.4.3.3.4.7.4,1.3l-.7,106.3c0,1.1-.6,1.7-1.8,1.7h-.7c-1.2,0-1.8-.6-1.8-1.7ZM1177.9-461.8c-.3-.3-.4-.7-.4-1.3v-10.8c0-.6.1-1,.4-1.3.3-.3.7-.4,1.3-.4h1.8c.6,0,1,.1,1.3.4.3.3.4.7.4,1.3v10.8c0,.6-.1,1-.4,1.3-.3.3-.7.4-1.3.4h-1.8c-.6,0-1-.1-1.3-.4Z"/>
    </g>
    <path d="M-287.1-873.7c1.3-4.4,2.6-8.8,4-13.2l9.5-31.8c3.8-12.8,7.6-25.5,11.4-38.3s6.6-22,9.9-33.1c1.1-3.6,2.2-7.3,3.3-10.9s1.1-3.4,1.5-5.2,0-.2,0-.2l-6.6,1.6c4.8.5,9.6,1,14.4,1.5,7.7.8,15.4,1.6,23,2.4l5.3.6c-14.5-10.9-29-21.8-43.4-32.7,1.1,3.9,2.2,7.7,3.3,11.6,2.6,9.3,5.3,18.6,7.9,27.8s6.4,22.4,9.6,33.7c2.8,9.7,5.5,19.3,8.3,29s2.6,9.5,4,14.2,0,.1,0,.2c1.2,2.7,2.8,5.1,4.7,7.2,2.2,2.9,4.7,5.6,7.4,7.9,5.2,4.6,10.7,8.6,16.7,11.9,2,1.3,4.1,2.3,6.4,3.1,2.6,1.3,5.4,2.1,8.2,2.6h4c2.3-.6,3.4-2.1,3.3-4.5,1-4,2-8,3-12,2.4-9.6,4.8-19.3,7.2-28.9s5.8-23.3,8.7-34.9c2.5-10.1,5-20.1,7.5-30.2s2.6-9.8,3.6-14.7,0-.1,0-.2l-7.4,4.5h18.1c-14.5-10.9-29-21.8-43.4-32.7,1.3,4.5,2.6,9.1,3.9,13.6,3.2,10.9,6.3,21.8,9.5,32.7,3.8,13.2,7.6,26.4,11.4,39.6s6.6,22.9,9.9,34.3,3.1,11.1,4.8,16.6,0,.2,0,.2c1.2,2.7,2.8,5.1,4.7,7.2,2.2,2.9,4.7,5.6,7.4,7.9,3.1,2.9,6.4,5.4,9.9,7.7,3.2,2.3,6.5,4.4,10.1,6.1l6.1,2.5c3,1.2,6.1,1.6,9.2,1.2l2.6-1.5c1.1-2.3,1-4.5-.3-6.8-1.3-4.5-2.6-9.1-3.9-13.6-3.2-10.9-6.3-21.8-9.5-32.7-3.8-13.2-7.6-26.4-11.4-39.6-3.3-11.4-6.6-22.9-9.9-34.3s-3.1-11.1-4.8-16.6,0-.2,0-.2c-1.8-3.6-4-6.9-6.8-9.8-3.6-3.9-7.6-7.5-11.8-10.7-4.3-3.2-8.8-6-13.6-8.4-3.6-1.9-7.3-3.1-11.3-3.8h-18.1c-2-.6-3.8-.4-5.3.8-1.6.5-2.3,1.8-2,3.6-1,4-2,8-3,12-2.4,9.6-4.8,19.3-7.2,28.9-2.9,11.6-5.8,23.3-8.7,34.9s-5,20.1-7.5,30.2c-1.2,4.9-2.5,9.8-3.6,14.7s0,.1,0,.2c16.9,9.4,33.9,18.8,50.8,28.3-1.1-3.9-2.2-7.7-3.3-11.6-2.6-9.3-5.3-18.6-7.9-27.8-3.2-11.2-6.4-22.4-9.6-33.7l-8.3-29c-1.3-4.7-2.6-9.5-4-14.2s0-.1,0-.2c-1.8-3.6-4-6.9-6.8-9.8-3.6-3.9-7.6-7.5-11.8-10.7-4.3-3.2-8.8-6-13.6-8.4-3.6-1.9-7.3-3.1-11.3-3.8-4.8-.5-9.6-1-14.4-1.5-7.7-.8-15.4-1.6-23-2.4l-5.3-.6c-2.5-.6-4.7,0-6.6,1.6-1.3,4.4-2.6,8.8-4,13.2-3.2,10.6-6.3,21.2-9.5,31.8s-7.6,25.5-11.4,38.3-6.6,22-9.9,33.1-3.2,10.7-4.8,16.1,0,.2,0,.2c-.9,1.6-1,3.2-.2,4.8.5,2.4,1.5,4.6,3.2,6.6,2,2.9,4.2,5.5,6.8,7.8,2.8,3,5.8,5.6,9.2,8l6.9,4.7c4,2.5,8.2,4.6,12.7,6.2l5.2,1.3c2.5.6,4.7,0,6.6-1.6h0Z"/>
    <path class="st1" d="M-41.6,415.5"/>
    <g class="st6">
      <g class="st16">
        <path d="M926.7-304.8l-.4-149.8,130.4-75.3.4,149.8-130.4,75.3M1057.3-531.1l-131.8,76.1.4,151.4,131.8-76.1-.4-151.4"/>
      </g>
    </g>
    <g class="st6">
      <g class="st8">
        <path d="M981.5-304.8l-.4-149.8,130.3-75.3.4,149.8-130.3,75.3M1112.2-531.1l-131.8,76.1.4,151.4,131.8-76.1-.4-151.4"/>
      </g>
    </g>
    <g class="st6">
      <g class="st10">
        <path d="M1036.4-304.8l-.4-149.8,130.3-75.3.4,149.8-130.3,75.3M1167.1-531.1l-131.8,76.1.4,151.4,131.8-76.1-.4-151.4"/>
      </g>
    </g>
    <g class="st6">
      <g class="st9">
        <path d="M1091.3-304.8l-.4-149.8,130.4-75.3.4,149.8-130.4,75.3M1221.9-531.1l-131.8,76.1.4,151.4,131.8-76.1-.4-151.4"/>
      </g>
    </g>
    <polygon class="st2" points="924 -454.8 1090.2 -454.8 1091 -304.9 924.8 -304.9 924 -454.8"/>
    <line class="st2" x1="1056.2" y1="-532.1" x2="1221.6" y2="-531.4"/>
    <g>
      <path d="M1169.4-631.1c-.8-.6-1.2-1.6-1.2-2.9v-5.3c0-1.3.4-2.3,1.2-2.9.8-.6,1.9-1,3.2-1s2.4.3,3.2,1c.8.6,1.2,1.6,1.2,2.9v.8c0,.2,0,.4-.2.5s-.3.2-.5.2h-1.5c-.2,0-.4,0-.5-.2-.1-.1-.2-.3-.2-.5v-.8c0-.6-.1-1.1-.4-1.4-.2-.3-.6-.4-1.2-.4s-.9.1-1.2.4c-.2.3-.4.8-.4,1.4v5.2c0,.7.1,1.1.4,1.4.2.3.6.4,1.2.4s1-.1,1.2-.4c.2-.3.4-.8.4-1.4v-.8c0-.2,0-.4.2-.5.1-.1.3-.2.5-.2h1.5c.2,0,.4,0,.5.2s.2.3.2.5v.8c0,1.3-.4,2.3-1.2,2.9-.8.6-1.9,1-3.2,1s-2.4-.3-3.2-1Z"/>
      <path d="M1179.1-631.2c-.8-.7-1.2-1.8-1.2-3.2v-4.6c0-1.5.4-2.5,1.2-3.2.8-.7,1.9-1,3.2-1s2.4.3,3.3,1c.8.7,1.2,1.8,1.2,3.2v4.6c0,1.4-.4,2.5-1.2,3.2s-1.9,1-3.3,1-2.4-.3-3.2-1ZM1183.5-632.9c.2-.3.4-.8.4-1.4v-4.8c0-.7-.1-1.1-.4-1.4-.2-.3-.6-.4-1.2-.4s-.9.1-1.2.4c-.2.3-.4.8-.4,1.4v4.8c0,.6.1,1.1.4,1.4.2.3.6.4,1.2.4s1-.1,1.2-.4Z"/>
      <path d="M1188-630.6c-.1-.1-.2-.3-.2-.5v-7.7l-.2-3.5c0-.2,0-.4.2-.5.1-.1.3-.2.5-.2h1.4c.2,0,.4,0,.5.2.1.1.2.3.2.5v3.1h.4v8.2c0,.2,0,.4-.2.5s-.3.2-.5.2h-1.5c-.2,0-.4,0-.5-.2ZM1194.2-630.6c-.1-.1-.2-.3-.2-.5v-8.4c0-.4-.1-.8-.3-1-.2-.3-.5-.4-.9-.4s-1,.2-1.4.7c-.4.4-.5,1.1-.5,2v.6h-.4v-.8c0-1.6.3-2.9,1-3.7.7-.8,1.5-1.2,2.6-1.2s1.5.3,2.1.8c.5.6.8,1.4.8,2.5v8.8c0,.2,0,.4-.2.5s-.3.2-.5.2h-1.5c-.2,0-.4,0-.5-.2ZM1200.4-630.6c-.1-.1-.2-.3-.2-.5v-8.4c0-.4-.1-.8-.3-1-.2-.3-.5-.4-1-.4s-1,.2-1.4.7c-.4.4-.6,1.1-.6,2v.6h-.4v-.8c0-1.6.3-2.9,1-3.7.7-.8,1.5-1.2,2.6-1.2s1.5.3,2.1.8c.6.6.8,1.4.8,2.5v8.8c0,.2,0,.4-.2.5s-.3.2-.5.2h-1.5c-.2,0-.4,0-.5-.2Z"/>
      <path d="M1204.5-630.6c-.1-.1-.2-.3-.2-.5v-11.3c0-.2,0-.4.2-.5.1-.1.3-.2.5-.2h1.5c.2,0,.4,0,.5.2.1.1.2.3.2.5v11.3c0,.2,0,.4-.2.5s-.3.2-.5.2h-1.5c-.2,0-.4,0-.5-.2ZM1204.5-644.9c-.1-.1-.2-.3-.2-.5v-1.4c0-.2,0-.4.2-.5.1-.1.3-.2.5-.2h1.5c.2,0,.4,0,.5.2s.2.3.2.5v1.4c0,.2,0,.4-.2.5-.1.1-.3.2-.5.2h-1.5c-.2,0-.4,0-.5-.2Z"/>
      <path d="M1209.1-631c-.5-.6-.8-1.4-.8-2.5v-6.5c0-1.1.3-1.9.8-2.5.5-.5,1.2-.8,2.1-.8s1.9.4,2.6,1.2c.7.8,1,2,1,3.7v.4h-.4v-.2c0-.9-.2-1.5-.6-2-.4-.4-.8-.6-1.4-.6s-.7.1-.9.4c-.2.3-.3.6-.3,1v5.4c0,.4.1.8.3,1,.2.3.5.4.9.4s1-.2,1.4-.6c.4-.4.6-1.1.6-2v-.2h.4v.4c0,1.6-.3,2.9-1,3.7-.7.8-1.5,1.2-2.6,1.2s-1.6-.3-2.1-.8ZM1215.1-630.6c-.1-.1-.2-.3-.2-.5v-3.1h-.4v-5.9h.3c-.2-2.5-.3-4.7-.3-6.8v-.9c0-.2,0-.4.2-.5.1-.1.3-.2.5-.2h1.5c.2,0,.4,0,.5.2s.2.3.2.5v13.1l.2,3.5c0,.2,0,.4-.1.5s-.3.2-.5.2h-1.3c-.2,0-.4,0-.5-.2Z"/>
      <path d="M1219.3-630.8c-.6-.4-.9-1.2-.9-2.3v-1.8c0-.6.2-1.1.5-1.4.4-.3.9-.6,1.7-.7l3.6-.8v-1.8c0-.6-.1-1-.4-1.3-.2-.3-.6-.4-1.2-.4s-.9.1-1.1.4c-.2.3-.3.7-.3,1.3v.7c0,.2,0,.4-.2.5-.1.1-.3.2-.5.2h-1.4c-.2,0-.4,0-.5-.2-.1-.1-.2-.3-.2-.5v-.7c0-.7.2-1.3.5-1.8s.8-1,1.4-1.3c.7-.3,1.5-.5,2.4-.5,1.5,0,2.6.3,3.3,1s1,1.7,1,2.9v4.1l.2,4.1c0,.2,0,.4-.1.5s-.3.2-.5.2h-1.3c-.2,0-.4,0-.5-.2-.1-.1-.2-.3-.2-.5v-2h-.1c0,.8-.3,1.5-.9,2.1-.6.6-1.3.8-2.2.8s-1.6-.2-2.2-.7ZM1223.8-632.9c.2-.4.4-.8.4-1.4v-1.8l-3,.8v1.7c0,.4.1.8.3,1,.2.2.5.3,1,.3s1-.2,1.3-.5Z"/>
    </g>
    <g>
      <path d="M1010.9-625.6c-.1-.1-.2-.3-.2-.5v-12.6l-.2-3.5c0-.2,0-.4.2-.5.1-.1.3-.2.5-.2h1.4c.2,0,.4,0,.5.2.1.1.2.3.2.5v3.1h.4v5.9h-.3c.2,2.5.3,4.7.3,6.8v.5c0,.2,0,.4-.2.5s-.3.2-.5.2h-1.5c-.2,0-.4,0-.5-.2ZM1014.3-631.4c-.7-.8-1-2-1-3.7v-.4h.4v.2c0,.9.2,1.5.5,2,.4.4.8.6,1.4.6s.7-.1,1-.4c.2-.3.3-.6.3-1v-5.4c0-.4-.1-.8-.3-1-.2-.3-.5-.4-1-.4s-1,.2-1.4.6c-.4.4-.5,1.1-.5,2v.2h-.4v-.4c0-1.6.3-2.9,1-3.7.7-.8,1.6-1.2,2.6-1.2s1.5.3,2.1.8c.5.5.8,1.4.8,2.5v6.5c0,1.1-.3,1.9-.8,2.5-.5.6-1.2.8-2.1.8s-1.9-.4-2.6-1.2Z"/>
      <path d="M1021.1-630.6c-.1-.1-.2-.3-.2-.5v-16.6c0-.2,0-.4.2-.5s.3-.2.5-.2h1.6c.2,0,.4,0,.5.2s.2.3.2.5v16.6c0,.2,0,.4-.2.5s-.3.2-.5.2h-1.6c-.2,0-.4,0-.5-.2Z"/>
      <path d="M1025.7-630.8c-.6-.4-.9-1.2-.9-2.3v-1.8c0-.6.2-1.1.5-1.4.4-.3.9-.6,1.7-.7l3.6-.8v-1.8c0-.6-.1-1-.4-1.3-.2-.3-.6-.4-1.2-.4s-.9.1-1.1.4c-.2.3-.3.7-.3,1.3v.7c0,.2,0,.4-.2.5-.1.1-.3.2-.5.2h-1.4c-.2,0-.4,0-.5-.2-.1-.1-.2-.3-.2-.5v-.7c0-.7.2-1.3.5-1.8s.8-1,1.4-1.3c.7-.3,1.5-.5,2.4-.5,1.5,0,2.6.3,3.3,1s1,1.7,1,2.9v4.1l.2,4.1c0,.2,0,.4-.1.5s-.3.2-.5.2h-1.3c-.2,0-.4,0-.5-.2-.1-.1-.2-.3-.2-.5v-2h-.1c0,.8-.3,1.5-.9,2.1-.6.6-1.3.8-2.2.8s-1.6-.2-2.2-.7ZM1030.3-632.9c.2-.4.4-.8.4-1.4v-1.8l-3,.8v1.7c0,.4.1.8.3,1,.2.2.5.3,1,.3s1-.2,1.3-.5Z"/>
      <path d="M1035-630.6c-.1-.1-.2-.3-.2-.5v-7.7l-.2-3.5c0-.2,0-.4.2-.5.1-.1.3-.2.5-.2h1.4c.2,0,.4,0,.5.2.1.1.2.3.2.5v3.1h.4v8.2c0,.2,0,.4-.2.5-.1.1-.3.2-.5.2h-1.5c-.2,0-.4,0-.5-.2ZM1041.1-630.6c-.1-.1-.2-.3-.2-.5v-8.4c0-.4-.1-.8-.3-1-.2-.3-.5-.4-.9-.4s-1,.2-1.4.7c-.4.4-.5,1.1-.5,2v.6h-.4v-.8c0-1.6.3-2.9,1-3.7.7-.8,1.5-1.2,2.6-1.2s1.5.3,2.1.8.8,1.4.8,2.5v8.8c0,.2,0,.4-.2.5s-.3.2-.5.2h-1.5c-.2,0-.4,0-.5-.2Z"/>
      <path d="M1046.1-631.2c-.8-.7-1.2-1.8-1.2-3.2v-4.6c0-1.5.4-2.5,1.2-3.2.8-.7,1.9-1,3.2-1s2.4.3,3.3,1c.8.7,1.2,1.8,1.2,3.2v4.6c0,1.4-.4,2.5-1.2,3.2s-1.9,1-3.3,1-2.4-.3-3.2-1ZM1050.5-632.9c.2-.3.4-.8.4-1.4v-4.8c0-.7-.1-1.1-.4-1.4-.2-.3-.6-.4-1.2-.4s-.9.1-1.2.4c-.2.3-.4.8-.4,1.4v4.8c0,.6.1,1.1.4,1.4.2.3.6.4,1.2.4s1-.1,1.2-.4Z"/>
    </g>
    <g>
      <path d="M1254.2-187c-.6-.4-.9-1.2-.9-2.3v-1.8c0-.6.2-1.1.5-1.4.4-.3.9-.6,1.7-.7l3.6-.8v-1.8c0-.6-.1-1-.4-1.3-.2-.3-.6-.4-1.2-.4s-.9.1-1.1.4c-.2.3-.3.7-.3,1.3v.7c0,.2,0,.4-.2.5-.1.1-.3.2-.5.2h-1.4c-.2,0-.4,0-.5-.2-.1-.1-.2-.3-.2-.5v-.7c0-.7.2-1.3.5-1.8s.8-1,1.4-1.3c.7-.3,1.5-.5,2.4-.5,1.5,0,2.6.3,3.3,1s1,1.7,1,2.9v4.1l.2,4.1c0,.2,0,.4-.1.5s-.3.2-.5.2h-1.3c-.2,0-.4,0-.5-.2-.1-.1-.2-.3-.2-.5v-2h-.1c0,.8-.3,1.5-.9,2.1-.6.6-1.3.8-2.2.8s-1.6-.2-2.2-.7ZM1258.8-189.1c.2-.4.4-.8.4-1.4v-1.8l-3,.8v1.7c0,.4.1.8.3,1,.2.2.5.3,1,.3s1-.2,1.3-.5Z"/>
      <path d="M1263.8-182.2c-.8-.5-1.2-1.3-1.2-2.5v-.6c0-.2,0-.4.2-.5.1-.1.3-.2.5-.2h1.4c.2,0,.4,0,.5.2.1.1.2.3.2.5v.4c0,.4.1.7.3,1s.5.4.9.4h1.9c.4,0,.7-.1.9-.3.2-.2.3-.5.3-.9v-.3c0-.3,0-.6-.3-.7-.2-.2-.5-.3-.9-.3h-2.5c-.9,0-1.5-.2-1.9-.5-.4-.4-.6-.9-.6-1.6s.2-1.2.6-1.7c.4-.4,1.1-.6,2.1-.6h1v.6c-.6,0-1,0-1.3.2-.2.1-.3.3-.3.6h0c0,.2,0,.3.2.4.1,0,.3.1.5.1h2.8c1.1,0,1.9.2,2.5.7.6.5.9,1.2.9,2.1v.9c0,1.1-.4,1.9-1.2,2.5-.8.6-2.1.8-3.8.8s-2.9-.3-3.7-.8ZM1264.1-190.7c-.7-.6-1.1-1.5-1.1-2.7v-2c0-1.2.4-2.2,1.1-2.8.8-.6,1.8-.9,3.1-.9h4.8c.2,0,.4,0,.5.2.1.1.2.3.2.5v.5c0,.2,0,.4-.2.5-.1.1-.3.2-.5.2h-1.8c.6.2,1,.5,1.2.9.2.4.4.9.4,1.5v2.1c0,1.1-.4,1.9-1.1,2.5-.8.5-1.8.8-3.3.8s-2.6-.3-3.3-.9ZM1268.6-191.9c.2-.3.4-.7.4-1.4v-2.3c0-.6-.1-1.1-.4-1.4-.2-.3-.6-.4-1.1-.4s-.9.1-1.2.4c-.2.3-.4.8-.4,1.4v2.3c0,.6.1,1.1.4,1.4.2.3.6.4,1.2.4s.9-.1,1.2-.4Z"/>
      <path d="M1276-199c.1.1.2.3.2.5v8.3c0,.4.1.8.3,1,.2.3.5.4.9.4s1-.2,1.4-.7c.4-.4.6-1.1.6-2v-.6h.4v.8c0,1.6-.3,2.9-1,3.7-.7.8-1.5,1.2-2.6,1.2s-1.6-.3-2.1-.8c-.5-.6-.8-1.4-.8-2.5v-8.8c0-.2,0-.4.2-.5.1-.1.3-.2.5-.2h1.6c.2,0,.4,0,.5.2ZM1282.1-199c.1.1.2.3.2.5v7.7l.2,3.5c0,.2,0,.4-.2.5-.1.1-.3.2-.5.2h-1.3c-.2,0-.4,0-.5-.2-.1-.1-.2-.3-.2-.5v-3.1h-.4v-8.2c0-.2,0-.4.2-.5.1-.1.3-.2.5-.2h1.5c.2,0,.4,0,.5.2Z"/>
      <path d="M1284.2-187c-.6-.4-.9-1.2-.9-2.3v-1.8c0-.6.2-1.1.5-1.4.4-.3.9-.6,1.7-.7l3.6-.8v-1.8c0-.6-.1-1-.4-1.3-.2-.3-.6-.4-1.2-.4s-.9.1-1.1.4c-.2.3-.3.7-.3,1.3v.7c0,.2,0,.4-.2.5-.1.1-.3.2-.5.2h-1.4c-.2,0-.4,0-.5-.2-.1-.1-.2-.3-.2-.5v-.7c0-.7.2-1.3.5-1.8s.8-1,1.4-1.3c.7-.3,1.5-.5,2.4-.5,1.5,0,2.6.3,3.3,1s1,1.7,1,2.9v4.1l.2,4.1c0,.2,0,.4-.1.5s-.3.2-.5.2h-1.3c-.2,0-.4,0-.5-.2-.1-.1-.2-.3-.2-.5v-2h-.1c0,.8-.3,1.5-.9,2.1-.6.6-1.3.8-2.2.8s-1.6-.2-2.2-.7ZM1288.7-189.1c.2-.4.4-.8.4-1.4v-1.8l-3,.8v1.7c0,.4.1.8.3,1,.2.2.5.3,1,.3s1-.2,1.3-.5Z"/>
    </g>
    <g>
      <path d="M1342.7-631.1c-.5-.6-.8-1.6-.8-3v-6.5h-1.1c-.2,0-.4,0-.5-.2-.1-.1-.2-.3-.2-.5v-1.1c0-.2,0-.4.2-.5.1-.1.3-.2.5-.2.5,0,.9,0,1.1-.1.2,0,.4-.3.5-.6.1-.3.3-.8.5-1.6,0-.3.2-.4.3-.6.1-.1.3-.2.6-.2h.4c.2,0,.4,0,.5.2s.2.3.2.5v2.4h3.4c.2,0,.4,0,.5.2.1.1.2.3.2.5v1.1c0,.2,0,.4-.2.5-.1.1-.3.2-.5.2h-3.4v6.7c0,.4,0,.8.3.9.2.2.4.3.8.3s.6,0,.8-.3c.2-.2.3-.5.3-.9v-2c0-.2,0-.4.2-.5.1-.1.3-.2.5-.2h.5c.2,0,.4,0,.5.2s.2.3.2.5v1.9c0,1.3-.3,2.2-.8,2.9-.5.6-1.4.9-2.6.9s-2.1-.3-2.7-.9Z"/>
      <path d="M1349.9-630.6c-.1-.1-.2-.3-.2-.5v-7.7l-.2-3.5c0-.3,0-.4.2-.6.1-.1.3-.2.5-.2h1.4c.2,0,.4,0,.5.2.1.1.2.3.2.5v1.5h.4v9.8c0,.2,0,.4-.2.5-.1.1-.3.2-.5.2h-1.5c-.2,0-.4,0-.5-.2ZM1353-641.8c.3-.4.7-.7,1.1-.9.4-.2.7-.3,1-.3s.3,0,.4.2c0,.1.1.2.1.4v1.3c0,.2,0,.4-.2.5-.1.1-.3.2-.5.2h-2.7c.1-.6.4-1,.7-1.3Z"/>
      <path d="M1357-631.1c-.8-.7-1.2-1.7-1.2-3v-5c0-1.4.4-2.4,1.2-3,.8-.6,1.9-1,3.2-1s2.4.3,3.2,1c.8.6,1.2,1.7,1.2,3v1.5c0,.2,0,.4-.2.6-.1.2-.3.3-.5.3l-5.5,1.1v-1.9l3.4-.7v-1.2c0-.6-.1-1.1-.4-1.3-.3-.3-.7-.4-1.2-.4s-.9.1-1.2.4c-.3.3-.4.7-.4,1.3v5.8c0,.6.1,1,.4,1.3.3.3.7.4,1.2.4s.9-.1,1.2-.4c.3-.3.4-.7.4-1.3v-1c0-.2,0-.4.2-.5.1-.1.3-.2.5-.2h1.5c.2,0,.4,0,.5.2.1.1.2.3.2.5v1.1c0,1.1-.4,2-1.2,2.6s-1.9.9-3.2.9-2.4-.3-3.2-1Z"/>
      <path d="M1365.8-630.6c-.1-.1-.2-.3-.2-.5v-11.3c0-.2,0-.4.2-.5.1-.1.3-.2.5-.2h1.5c.2,0,.4,0,.5.2.1.1.2.3.2.5v11.3c0,.2,0,.4-.2.5s-.3.2-.5.2h-1.5c-.2,0-.4,0-.5-.2ZM1365.8-644.9c-.1-.1-.2-.3-.2-.5v-1.4c0-.2,0-.4.2-.5.1-.1.3-.2.5-.2h1.5c.2,0,.4,0,.5.2s.2.3.2.5v1.4c0,.2,0,.4-.2.5-.1.1-.3.2-.5.2h-1.5c-.2,0-.4,0-.5-.2Z"/>
      <path d="M1370-630.6c-.1-.1-.2-.3-.2-.5v-7.7l-.2-3.5c0-.2,0-.4.2-.5.1-.1.3-.2.5-.2h1.4c.2,0,.4,0,.5.2.1.1.2.3.2.5v3.1h.4v8.2c0,.2,0,.4-.2.5s-.3.2-.5.2h-1.5c-.2,0-.4,0-.5-.2ZM1376.1-630.6c-.1-.1-.2-.3-.2-.5v-8.4c0-.4-.1-.8-.3-1-.2-.3-.5-.4-.9-.4s-1,.2-1.4.7c-.4.4-.5,1.1-.5,2v.6h-.4v-.8c0-1.6.3-2.9,1-3.7.7-.8,1.5-1.2,2.6-1.2s1.5.3,2.1.8c.5.6.8,1.4.8,2.5v8.8c0,.2,0,.4-.2.5s-.3.2-.5.2h-1.5c-.2,0-.4,0-.5-.2Z"/>
      <path d="M1381.1-631.2c-.8-.7-1.2-1.8-1.2-3.2v-4.6c0-1.5.4-2.5,1.2-3.2.8-.7,1.9-1,3.2-1s2.4.3,3.3,1c.8.7,1.2,1.8,1.2,3.2v4.6c0,1.4-.4,2.5-1.2,3.2s-1.9,1-3.3,1-2.4-.3-3.2-1ZM1385.5-632.9c.2-.3.4-.8.4-1.4v-4.8c0-.7-.1-1.1-.4-1.4-.2-.3-.6-.4-1.2-.4s-.9.1-1.2.4c-.2.3-.4.8-.4,1.4v4.8c0,.6.1,1.1.4,1.4.2.3.6.4,1.2.4s1-.1,1.2-.4Z"/>
    </g>
    <g>
      <path d="M986-618.7c-.9,1.6-1.8,3.5-1.8,6.5s.7,4.8,1.8,6.7h-1.1c-.8-1.4-1.7-3.6-1.7-6.7s1-5.1,1.7-6.4h1.1Z"/>
      <path d="M987.8-608v3.4h-1.2v-8.6c0-1.1,0-1.9,0-2.4h1.1c0,.2,0,.5,0,.9.2-.6.7-1,1.5-1s1.7.8,1.7,2.4v3.5c0,1.8-.7,2.6-1.8,2.6s-1.2-.4-1.4-.8ZM989.8-609.7v-3.5c0-1-.4-1.4-.9-1.4-.9,0-1.1.7-1.1,1.8v2.7c0,1,.1,1.9,1,1.9s1-.6,1-1.5Z"/>
      <path d="M995.9-608.7c0,.6,0,1.2,0,1.4h-1.1c0-.2,0-.5,0-.7-.3.6-.8.8-1.4.8-1.2,0-1.7-1.1-1.7-2.3h0c0-2,1.2-2.7,2.7-2.7h.4v-1.3c0-.7-.1-1.2-.8-1.2s-.8.5-.8,1.1v.2h-1.2v-.2c0-1.1.5-2.1,2-2.1s1.9.9,1.9,2.1v4.8ZM994.7-611.2h-.4c-1,0-1.5.4-1.5,1.6h0c0,.9.2,1.5.9,1.5s1-.6,1-1.8v-1.2Z"/>
      <path d="M998.3-608v3.4h-1.2v-8.6c0-1.1,0-1.9,0-2.4h1.1c0,.2,0,.5,0,.9.2-.6.7-1,1.5-1s1.7.8,1.7,2.4v3.5c0,1.8-.7,2.6-1.8,2.6s-1.2-.4-1.4-.8ZM1000.3-609.7v-3.5c0-1-.4-1.4-.9-1.4-.9,0-1.1.7-1.1,1.8v2.7c0,1,.1,1.9,1,1.9s1-.6,1-1.5Z"/>
      <path d="M1003.4-611.2v1.3c0,.8.2,1.7,1,1.7s.9-.6.9-1.4h0c0,0,1.1,0,1.1,0h0c0,1-.2,2.5-2.1,2.5s-2.1-1.1-2.1-2.8v-3.1c0-1.2.4-2.6,2.2-2.6s2.1,1.2,2.1,2.6v1.9h-3.1ZM1005.4-612.1v-1c0-.8-.1-1.5-1-1.5s-1,.6-1,1.5v1h2Z"/>
      <path d="M1007.4-607.3v-11.3h1.2v11.3h-1.2Z"/>
      <path d="M1011.7-607.3v-11.3h1.2v11.3h-1.2Z"/>
      <path d="M1014.1-615.5h1.2v8.2h-1.2v-8.2ZM1014.1-618.6h1.2v1.7h-1.2v-1.7Z"/>
      <path d="M1017.3-609.7v.4c0,.8.3,1.2.9,1.2s.9-.4.9-1.1-.2-1.2-1.2-1.8c-1.1-.7-1.6-1.3-1.6-2.4s.6-2.1,2-2.1,1.9.9,1.9,2.2v.4h-1.1v-.5c0-.7-.2-1.1-.8-1.1s-.8.4-.8,1,.2.9,1,1.5c1.2.8,1.8,1.4,1.8,2.7s-.7,2.3-2.1,2.3-2.1-1.1-2.1-2.2v-.4h1.2Z"/>
      <path d="M1020.4-615.5h1v-2h1.2v2h1.2v1h-1.2v5.5c0,.4,0,.8.6.8s.4,0,.5,0v.9c-.3.1-.6.1-.9.1-.8,0-1.4-.3-1.4-1.6v-5.7h-1v-1Z"/>
      <path d="M1028.2-608.7c0,.6,0,1.2,0,1.4h-1.1c0-.2,0-.5,0-.7-.3.6-.8.8-1.4.8-1.2,0-1.7-1.1-1.7-2.3h0c0-2,1.2-2.7,2.7-2.7h.4v-1.3c0-.7-.1-1.2-.8-1.2s-.8.5-.8,1.1v.2h-1.2v-.2c0-1.1.5-2.1,2-2.1s1.9.9,1.9,2.1v4.8ZM1027-611.2h-.4c-1,0-1.5.4-1.5,1.6h0c0,.9.2,1.5.9,1.5s1-.6,1-1.8v-1.2Z"/>
      <path d="M1034.3-608.1c-.2.6-.7.9-1.5.9-1.5,0-1.7-1.4-1.7-2.8v-3.1c0-1.6.6-2.7,1.9-2.7s1.2.4,1.3.8c0-.2,0-.4,0-.6h1.1c0,.5,0,1.3,0,2.5v8.6h-1.2v-3.6ZM1032.3-613v3.2c0,.9.2,1.6,1,1.6s1.1-1,1.1-2v-2.6c0-.9,0-1.8-1-1.8s-1,.7-1,1.6Z"/>
      <path d="M1041-609.5c0,1.1,0,1.8,0,2.2h-1.1c0-.2,0-.6,0-.9-.3.7-.8,1-1.5,1s-1.6-.3-1.6-2.1v-6.3h1.2v6c0,1,.3,1.4.9,1.4s1.1-.3,1.1-1.9v-5.4h1.2v6Z"/>
      <path d="M1043.1-611.2v1.3c0,.8.2,1.7,1,1.7s.9-.6.9-1.4h0c0,0,1.1,0,1.1,0h0c0,1-.2,2.5-2.1,2.5s-2.1-1.1-2.1-2.8v-3.1c0-1.2.4-2.6,2.2-2.6s2.1,1.2,2.1,2.6v1.9h-3.1ZM1045.1-612.1v-1c0-.8-.1-1.5-1-1.5s-1,.6-1,1.5v1h2Z"/>
      <path d="M1049-607.3v-11.3h1.2v11.3h-1.2Z"/>
      <path d="M1052.3-611.2v1.3c0,.8.2,1.7,1,1.7s.9-.6.9-1.4h0c0,0,1.1,0,1.1,0h0c0,1-.2,2.5-2.1,2.5s-2.1-1.1-2.1-2.8v-3.1c0-1.2.4-2.6,2.2-2.6s2.1,1.2,2.1,2.6v1.9h-3.1ZM1054.3-612.1v-1c0-.8-.1-1.5-1-1.5s-1,.6-1,1.5v1h2Z"/>
      <path d="M1056.4-618.6h1.2v3.8c.2-.5.7-.9,1.5-.9,1.2,0,1.7,1,1.7,2.4v3.2c0,1.7-.4,2.9-1.9,2.9s-1.2-.4-1.4-.9c0,.3,0,.5,0,.8h-1.1c0-.5,0-1.2,0-2.2v-9.1ZM1059.6-609.9v-3.2c0-.9-.2-1.5-.9-1.5s-1.1.9-1.1,2v2.5c0,1.2.3,1.8,1.1,1.8s1-.5,1-1.7Z"/>
      <path d="M1061.7-612.7c0-1.3,0-2.1,0-2.8h1.1c0,.2,0,.7,0,1.3.3-1,1-1.4,1.8-1.4v1.4c-1,0-1.7.6-1.7,2.1v4.8h-1.2v-5.4Z"/>
      <path d="M1068.9-608.7c0,.6,0,1.2,0,1.4h-1.1c0-.2,0-.5,0-.7-.3.6-.8.8-1.4.8-1.2,0-1.7-1.1-1.7-2.3h0c0-2,1.2-2.7,2.7-2.7h.4v-1.3c0-.7-.1-1.2-.8-1.2s-.8.5-.8,1.1v.2h-1.2v-.2c0-1.1.5-2.1,2-2.1s1.9.9,1.9,2.1v4.8ZM1067.8-611.2h-.4c-1,0-1.5.4-1.5,1.6h0c0,.9.2,1.5.9,1.5s1-.6,1-1.8v-1.2Z"/>
      <path d="M1077.5-611.8c0-2,0-4.1,0-5.3h0c-.3,1.8-1.1,6.6-1.7,9.8h-1.1c-.4-2.8-1.3-7.9-1.6-9.8h0c0,1.3,0,3.7,0,5.5v4.2h-1.1v-10.8h1.7c.6,3.2,1.3,7.1,1.5,8.5h0c.2-1.3,1-5.5,1.6-8.5h1.7v10.8h-1.1v-4.5Z"/>
      <path d="M1079.4-605.5c.9-1.6,1.8-3.5,1.8-6.5s-.7-4.8-1.8-6.7h1.1c.8,1.4,1.7,3.6,1.7,6.7s-1,5.1-1.7,6.4h-1.1Z"/>
    </g>
    <g>
      <path d="M1127.7-618.7c-.9,1.6-1.8,3.5-1.8,6.5s.7,4.8,1.8,6.7h-1.1c-.8-1.4-1.7-3.6-1.7-6.7s1-5.1,1.7-6.4h1.1Z"/>
      <path d="M1129.5-608v3.4h-1.2v-8.6c0-1.1,0-1.9,0-2.4h1.1c0,.2,0,.5,0,.9.2-.6.7-1,1.5-1s1.7.8,1.7,2.4v3.5c0,1.8-.7,2.6-1.8,2.6s-1.2-.4-1.4-.8ZM1131.5-609.7v-3.5c0-1-.4-1.4-.9-1.4-.9,0-1.1.7-1.1,1.8v2.7c0,1,.1,1.9,1,1.9s1-.6,1-1.5Z"/>
      <path d="M1133.6-612.7c0-1.3,0-2.1,0-2.8h1.1c0,.2,0,.7,0,1.3.3-1,1-1.4,1.8-1.4v1.4c-1,0-1.7.6-1.7,2.1v4.8h-1.2v-5.4Z"/>
      <path d="M1140.9-608.7c0,.6,0,1.2,0,1.4h-1.1c0-.2,0-.5,0-.7-.3.6-.8.8-1.4.8-1.2,0-1.7-1.1-1.7-2.3h0c0-2,1.2-2.7,2.7-2.7h.4v-1.3c0-.7-.1-1.2-.8-1.2s-.8.5-.8,1.1v.2h-1.2v-.2c0-1.1.5-2.1,2-2.1s1.9.9,1.9,2.1v4.8ZM1139.7-611.2h-.4c-1,0-1.5.4-1.5,1.6h0c0,.9.2,1.5.9,1.5s1-.6,1-1.8v-1.2Z"/>
      <path d="M1141.3-615.5h1v-2h1.2v2h1.2v1h-1.2v5.5c0,.4,0,.8.6.8s.4,0,.5,0v.9c-.3.1-.6.1-.9.1-.8,0-1.4-.3-1.4-1.6v-5.7h-1v-1Z"/>
      <path d="M1149.2-613.2v3.4c0,1.8-.9,2.6-2.2,2.6s-2.2-.8-2.2-2.5v-3.5c0-1.6.9-2.4,2.2-2.4s2.2.9,2.2,2.5ZM1146-613.2v3.6c0,.9.3,1.5,1,1.5s1-.4,1-1.5v-3.6c0-.8-.3-1.4-1-1.4s-1,.5-1,1.4Z"/>
      <path d="M1156-609.9h0c0,1.5-.4,2.7-2.1,2.7s-2-1.1-2-2.8v-3.2c0-1.4.5-2.5,2.1-2.5s2,1.2,2,2.3v.3h-1.2v-.3c0-.7-.1-1.4-.9-1.4s-.9.5-.9,1.5v3.5c0,.7.1,1.5.9,1.5s.9-.4.9-1.5v-.3h1.2Z"/>
      <path d="M1161-613.2v3.4c0,1.8-.9,2.6-2.2,2.6s-2.2-.8-2.2-2.5v-3.5c0-1.6.9-2.4,2.2-2.4s2.2.9,2.2,2.5ZM1157.8-613.2v3.6c0,.9.3,1.5,1,1.5s1-.4,1-1.5v-3.6c0-.8-.3-1.4-1-1.4s-1,.5-1,1.4Z"/>
      <path d="M1162-613.1c0-1.5,0-2,0-2.4h1.1c0,.2,0,.5,0,.8.2-.6.7-.9,1.4-.9s1.1.3,1.3,1c.3-.5.7-1,1.5-1s1.6.4,1.6,1.9v6.4h-1.2v-6.2c0-.6-.1-1.1-.8-1.1s-1,.7-1,1.6v5.7h-1.2v-6.1c0-.9-.2-1.2-.8-1.2s-.9.7-.9,1.6v5.7h-1.2v-5.9Z"/>
      <path d="M1176.4-609.5c0,1.1,0,1.8,0,2.2h-1.1c0-.2,0-.6,0-.9-.3.7-.8,1-1.5,1s-1.6-.3-1.6-2.1v-6.3h1.2v6c0,1,.3,1.4.9,1.4s1.1-.3,1.1-1.9v-5.4h1.2v6Z"/>
      <path d="M1177.6-613.1c0-1.5,0-2,0-2.4h1.1c0,.2,0,.5,0,.8.3-.6.7-.9,1.4-.9s1.1.3,1.3,1c.3-.5.7-1,1.5-1s1.6.4,1.6,1.9v6.4h-1.2v-6.2c0-.6-.1-1.1-.8-1.1s-1,.7-1,1.6v5.7h-1.2v-6.1c0-.9-.2-1.2-.8-1.2s-.9.7-.9,1.6v5.7h-1.2v-5.9Z"/>
      <path d="M1191.9-607.5c0,1.7-.2,3.1-2.3,3.1s-2.1-1.2-2.1-2h0s1.2,0,1.2,0h0c0,.5.2,1.1,1,1.1s1.1-.6,1.1-1.8v-1.1c-.2.6-.7.9-1.4.9-1.3,0-1.8-.9-1.8-2.5v-3.3c0-1.4.6-2.4,1.9-2.4s1.3.4,1.4.8c0-.2,0-.5,0-.7h1c0,.5,0,1.2,0,2.2v5.9ZM1188.7-613.1v3.1c0,1.1.3,1.6.9,1.6,1,0,1.1-.9,1.1-2v-2.4c0-.9-.1-1.7-1-1.7s-1,.5-1,1.5Z"/>
      <path d="M1196.8-608.7c0,.6,0,1.2,0,1.4h-1.1c0-.2,0-.5,0-.7-.3.6-.8.8-1.4.8-1.2,0-1.7-1.1-1.7-2.3h0c0-2,1.2-2.7,2.7-2.7h.4v-1.3c0-.7-.1-1.2-.8-1.2s-.8.5-.8,1.1v.2h-1.2v-.2c0-1.1.5-2.1,2-2.1s1.9.9,1.9,2.1v4.8ZM1195.7-611.2h-.4c-1,0-1.5.4-1.5,1.6h0c0,.9.2,1.5.9,1.5s1-.6,1-1.8v-1.2Z"/>
      <path d="M1198.1-612.7c0-1.3,0-2.1,0-2.8h1.1c0,.2,0,.7,0,1.3.3-1,1-1.4,1.8-1.4v1.4c-1,0-1.7.6-1.7,2.1v4.8h-1.2v-5.4Z"/>
      <path d="M1202.1-607.3v-7.2h-.9v-1h.9v-1.2c0-1,.4-2,1.7-2s.4,0,.6,0v1.1c-.1,0-.2,0-.4,0-.6,0-.7.4-.7,1v1h1.1v1h-1.1v7.2h-1.2Z"/>
      <path d="M1209-613.2v3.4c0,1.8-.9,2.6-2.2,2.6s-2.2-.8-2.2-2.5v-3.5c0-1.6.9-2.4,2.2-2.4s2.2.9,2.2,2.5ZM1205.8-613.2v3.6c0,.9.3,1.5,1,1.5s1-.4,1-1.5v-3.6c0-.8-.3-1.4-1-1.4s-1,.5-1,1.4Z"/>
      <path d="M1214.9-608.1c-.2.6-.7.9-1.5.9-1.5,0-1.7-1.4-1.7-2.8v-3.1c0-1.6.6-2.7,1.9-2.7s1.2.4,1.3.8c0-.2,0-.4,0-.6h1.1c0,.5,0,1.3,0,2.5v8.6h-1.2v-3.6ZM1212.8-613v3.2c0,.9.2,1.6,1,1.6s1.1-1,1.1-2v-2.6c0-.9,0-1.8-1-1.8s-1,.7-1,1.6Z"/>
      <path d="M1221.5-609.5c0,1.1,0,1.8,0,2.2h-1.1c0-.2,0-.6,0-.9-.3.7-.8,1-1.5,1s-1.6-.3-1.6-2.1v-6.3h1.2v6c0,1,.3,1.4.9,1.4s1.1-.3,1.1-1.9v-5.4h1.2v6Z"/>
      <path d="M1223.7-611.2v1.3c0,.8.2,1.7,1,1.7s.9-.6.9-1.4h0c0,0,1.1,0,1.1,0h0c0,1-.2,2.5-2.1,2.5s-2.1-1.1-2.1-2.8v-3.1c0-1.2.4-2.6,2.2-2.6s2.1,1.2,2.1,2.6v1.9h-3.1ZM1225.6-612.1v-1c0-.8-.1-1.5-1-1.5s-1,.6-1,1.5v1h2Z"/>
      <path d="M1229.6-607.3v-11.3h1.2v11.3h-1.2Z"/>
      <path d="M1232.9-611.2v1.3c0,.8.2,1.7,1,1.7s.9-.6.9-1.4h0c0,0,1.1,0,1.1,0h0c0,1-.2,2.5-2.1,2.5s-2.1-1.1-2.1-2.8v-3.1c0-1.2.4-2.6,2.2-2.6s2.1,1.2,2.1,2.6v1.9h-3.1ZM1234.9-612.1v-1c0-.8-.1-1.5-1-1.5s-1,.6-1,1.5v1h2Z"/>
      <path d="M1236.9-613.1c0-1.5,0-2,0-2.4h1.1c0,.2,0,.5,0,.8.2-.6.7-.9,1.4-.9s1.1.3,1.3,1c.3-.5.7-1,1.5-1s1.6.4,1.6,1.9v6.4h-1.2v-6.2c0-.6-.1-1.1-.8-1.1s-1,.7-1,1.6v5.7h-1.2v-6.1c0-.9-.2-1.2-.8-1.2s-.9.7-.9,1.6v5.7h-1.2v-5.9Z"/>
      <path d="M1245.1-618.6h1.2v3.8c.2-.5.7-.9,1.5-.9,1.2,0,1.7,1,1.7,2.4v3.2c0,1.7-.4,2.9-1.9,2.9s-1.2-.4-1.4-.9c0,.3,0,.5,0,.8h-1.1c0-.5,0-1.2,0-2.2v-9.1ZM1248.3-609.9v-3.2c0-.9-.2-1.5-.9-1.5s-1.1.9-1.1,2v2.5c0,1.2.3,1.8,1.1,1.8s1-.5,1-1.7Z"/>
      <path d="M1250.5-612.7c0-1.3,0-2.1,0-2.8h1.1c0,.2,0,.7,0,1.3.3-1,1-1.4,1.8-1.4v1.4c-1,0-1.7.6-1.7,2.1v4.8h-1.2v-5.4Z"/>
      <path d="M1257.7-608.7c0,.6,0,1.2,0,1.4h-1.1c0-.2,0-.5,0-.7-.3.6-.8.8-1.4.8-1.2,0-1.7-1.1-1.7-2.3h0c0-2,1.2-2.7,2.7-2.7h.4v-1.3c0-.7-.1-1.2-.8-1.2s-.8.5-.8,1.1v.2h-1.2v-.2c0-1.1.5-2.1,2-2.1s1.9.9,1.9,2.1v4.8ZM1256.6-611.2h-.4c-1,0-1.5.4-1.5,1.6h0c0,.9.2,1.5.9,1.5s1-.6,1-1.8v-1.2Z"/>
      <path d="M1265.4-615.4v5.4c0,1.9-.8,2.8-2.4,2.8s-2.3-1.1-2.3-2.8v-5.5c0-1.8.9-2.8,2.4-2.8s2.4,1.1,2.4,2.8ZM1261.8-615.5v5.6c0,1.2.4,1.7,1.2,1.7s1.2-.5,1.2-1.7v-5.5c0-1.1-.4-1.7-1.2-1.7s-1.2.5-1.2,1.7Z"/>
      <path d="M1265.8-605.5c.9-1.6,1.8-3.5,1.8-6.5s-.7-4.8-1.8-6.7h1.1c.8,1.4,1.7,3.6,1.7,6.7s-1,5.1-1.7,6.4h-1.1Z"/>
    </g>
    <g>
      <path d="M1303-618.7c-.9,1.6-1.8,3.5-1.8,6.5s.7,4.8,1.8,6.7h-1.1c-.8-1.4-1.7-3.6-1.7-6.7s1-5.1,1.7-6.4h1.1Z"/>
      <path d="M1304.9-610.7l-.5,3.4h-1.2l1.8-10.8h1.7l1.9,10.8h-1.2l-.6-3.4h-1.9ZM1306.6-611.8c-.4-2.4-.7-4.2-.8-5.2h0c0,.8-.4,3.3-.7,5.2h1.5Z"/>
      <path d="M1309.3-613c0-1.7,0-2.1,0-2.5h1.1c0,.2,0,.5,0,.8.2-.6.7-1,1.5-1s1.7.5,1.7,2v6.3h-1.2v-6.1c0-.8-.3-1.2-.9-1.2s-1.1.3-1.1,1.9v5.4h-1.2v-5.7Z"/>
      <path d="M1314.8-615.5h1.2v8.2h-1.2v-8.2ZM1314.8-618.6h1.2v1.7h-1.2v-1.7Z"/>
      <path d="M1317.2-607.3v-11.3h1.2v11.3h-1.2Z"/>
      <path d="M1320.8-618.6v3.8c.2-.5.7-.9,1.5-.9,1.3,0,1.6.9,1.6,2.1v6.2h-1.2v-6c0-.7,0-1.4-.9-1.4s-1.1.7-1.1,1.9v5.4h-1.2v-11.3h1.2Z"/>
      <path d="M1328.9-608.7c0,.6,0,1.2,0,1.4h-1.1c0-.2,0-.5,0-.7-.3.6-.8.8-1.4.8-1.2,0-1.7-1.1-1.7-2.3h0c0-2,1.2-2.7,2.7-2.7h.4v-1.3c0-.7-.1-1.2-.8-1.2s-.8.5-.8,1.1v.2h-1.2v-.2c0-1.1.5-2.1,2-2.1s1.9.9,1.9,2.1v4.8ZM1327.8-611.2h-.4c-1,0-1.5.4-1.5,1.6h0c0,.9.2,1.5.9,1.5s1-.6,1-1.8v-1.2Z"/>
      <path d="M1330.8-609.7v.4c0,.8.3,1.2.9,1.2s.9-.4.9-1.1-.2-1.2-1.2-1.8c-1.1-.7-1.6-1.3-1.6-2.4s.6-2.1,2-2.1,1.9.9,1.9,2.2v.4h-1.1v-.5c0-.7-.2-1.1-.8-1.1s-.8.4-.8,1,.2.9,1,1.5c1.2.8,1.8,1.4,1.8,2.7s-.7,2.3-2.1,2.3-2.1-1.1-2.1-2.2v-.4h1.2Z"/>
      <path d="M1340.7-618.6v9.2c0,1,0,1.7,0,2.1h-1.1c0-.2,0-.6,0-.8-.2.5-.6.9-1.5.9-1.4,0-1.8-1.1-1.8-2.7v-3.4c0-1.5.6-2.4,1.9-2.4s1.1.3,1.3.6v-3.5h1.2ZM1337.5-613.1v3.3c0,1,.3,1.6.9,1.6s1.1-.8,1.1-2v-2.7c0-.9,0-1.7-1-1.7s-1,.6-1,1.5Z"/>
      <path d="M1346-613.2v3.4c0,1.8-.9,2.6-2.2,2.6s-2.2-.8-2.2-2.5v-3.5c0-1.6.9-2.4,2.2-2.4s2.2.9,2.2,2.5ZM1342.9-613.2v3.6c0,.9.3,1.5,1,1.5s1-.4,1-1.5v-3.6c0-.8-.3-1.4-1-1.4s-1,.5-1,1.4Z"/>
      <path d="M1347-618.6h1.2v3.8c.2-.5.7-.9,1.5-.9,1.2,0,1.7,1,1.7,2.4v3.2c0,1.7-.4,2.9-1.9,2.9s-1.2-.4-1.4-.9c0,.3,0,.5,0,.8h-1.1c0-.5,0-1.2,0-2.2v-9.1ZM1350.2-609.9v-3.2c0-.9-.2-1.5-.9-1.5s-1.1.9-1.1,2v2.5c0,1.2.3,1.8,1.1,1.8s1-.5,1-1.7Z"/>
      <path d="M1352.4-612.7c0-1.3,0-2.1,0-2.8h1.1c0,.2,0,.7,0,1.3.3-1,1-1.4,1.8-1.4v1.4c-1,0-1.7.6-1.7,2.1v4.8h-1.2v-5.4Z"/>
      <path d="M1359.6-608.7c0,.6,0,1.2,0,1.4h-1.1c0-.2,0-.5,0-.7-.3.6-.8.8-1.4.8-1.2,0-1.7-1.1-1.7-2.3h0c0-2,1.2-2.7,2.7-2.7h.4v-1.3c0-.7-.1-1.2-.8-1.2s-.8.5-.8,1.1v.2h-1.2v-.2c0-1.1.5-2.1,2-2.1s1.9.9,1.9,2.1v4.8ZM1358.5-611.2h-.4c-1,0-1.5.4-1.5,1.6h0c0,.9.2,1.5.9,1.5s1-.6,1-1.8v-1.2Z"/>
      <path d="M1365-618.6v9.2c0,1,0,1.7,0,2.1h-1.1c0-.2,0-.6,0-.8-.2.5-.6.9-1.5.9-1.4,0-1.8-1.1-1.8-2.7v-3.4c0-1.5.6-2.4,1.9-2.4s1.1.3,1.3.6v-3.5h1.2ZM1361.8-613.1v3.3c0,1,.3,1.6.9,1.6s1.1-.8,1.1-2v-2.7c0-.9,0-1.7-1-1.7s-1,.6-1,1.5Z"/>
      <path d="M1370-608.7c0,.6,0,1.2,0,1.4h-1.1c0-.2,0-.5,0-.7-.3.6-.8.8-1.4.8-1.2,0-1.7-1.1-1.7-2.3h0c0-2,1.2-2.7,2.7-2.7h.4v-1.3c0-.7-.1-1.2-.8-1.2s-.8.5-.8,1.1v.2h-1.2v-.2c0-1.1.5-2.1,2-2.1s1.9.9,1.9,2.1v4.8ZM1368.8-611.2h-.4c-1,0-1.5.4-1.5,1.6h0c0,.9.2,1.5.9,1.5s1-.6,1-1.8v-1.2Z"/>
      <path d="M1371.8-609.7v.4c0,.8.3,1.2.9,1.2s.9-.4.9-1.1-.2-1.2-1.2-1.8c-1.1-.7-1.6-1.3-1.6-2.4s.6-2.1,2-2.1,1.9.9,1.9,2.2v.4h-1.1v-.5c0-.7-.2-1.1-.8-1.1s-.8.4-.8,1,.2.9,1,1.5c1.2.8,1.8,1.4,1.8,2.7s-.7,2.3-2.1,2.3-2.1-1.1-2.1-2.2v-.4h1.2Z"/>
      <path d="M1380.6-608.1c-.2.6-.7.9-1.5.9-1.5,0-1.7-1.4-1.7-2.8v-3.1c0-1.6.6-2.7,1.9-2.7s1.2.4,1.3.8c0-.2,0-.4,0-.6h1.1c0,.5,0,1.3,0,2.5v8.6h-1.2v-3.6ZM1378.5-613v3.2c0,.9.2,1.6,1,1.6s1.1-1,1.1-2v-2.6c0-.9,0-1.8-1-1.8s-1,.7-1,1.6Z"/>
      <path d="M1383.6-615.5c.6,3,1.1,5.8,1.2,6.8h0c.2-1.3.7-4,1.2-6.8h1.2l-1.9,8.7c-.5,2.3-1.2,2.4-2.1,2.4s-.4,0-.6,0v-1.1c0,0,.3,0,.5,0,.6,0,.9-.3,1.1-1.5l-1.8-8.5h1.3Z"/>
      <path d="M1388.6-611.2v1.3c0,.8.2,1.7,1,1.7s.9-.6.9-1.4h0c0,0,1.1,0,1.1,0h0c0,1-.2,2.5-2.1,2.5s-2.1-1.1-2.1-2.8v-3.1c0-1.2.4-2.6,2.2-2.6s2.1,1.2,2.1,2.6v1.9h-3.1ZM1390.6-612.1v-1c0-.8-.1-1.5-1-1.5s-1,.6-1,1.5v1h2Z"/>
      <path d="M1394.5-607.3v-11.3h1.2v11.3h-1.2Z"/>
      <path d="M1397.8-611.2v1.3c0,.8.2,1.7,1,1.7s.9-.6.9-1.4h0c0,0,1.1,0,1.1,0h0c0,1-.2,2.5-2.1,2.5s-2.1-1.1-2.1-2.8v-3.1c0-1.2.4-2.6,2.2-2.6s2.1,1.2,2.1,2.6v1.9h-3.1ZM1399.8-612.1v-1c0-.8-.1-1.5-1-1.5s-1,.6-1,1.5v1h2Z"/>
      <path d="M1401.9-613.1c0-1.5,0-2,0-2.4h1.1c0,.2,0,.5,0,.8.3-.6.7-.9,1.4-.9s1.1.3,1.3,1c.3-.5.7-1,1.5-1s1.6.4,1.6,1.9v6.4h-1.2v-6.2c0-.6-.1-1.1-.8-1.1s-1,.7-1,1.6v5.7h-1.2v-6.1c0-.9-.2-1.2-.8-1.2s-.9.7-.9,1.6v5.7h-1.2v-5.9Z"/>
      <path d="M1410.1-618.6h1.2v3.8c.2-.5.7-.9,1.5-.9,1.2,0,1.7,1,1.7,2.4v3.2c0,1.7-.4,2.9-1.9,2.9s-1.2-.4-1.4-.9c0,.3,0,.5,0,.8h-1.1c0-.5,0-1.2,0-2.2v-9.1ZM1413.3-609.9v-3.2c0-.9-.2-1.5-.9-1.5s-1.1.9-1.1,2v2.5c0,1.2.3,1.8,1.1,1.8s1-.5,1-1.7Z"/>
      <path d="M1415.4-612.7c0-1.3,0-2.1,0-2.8h1.1c0,.2,0,.7,0,1.3.3-1,1-1.4,1.8-1.4v1.4c-1,0-1.7.6-1.7,2.1v4.8h-1.2v-5.4Z"/>
      <path d="M1422.7-608.7c0,.6,0,1.2,0,1.4h-1.1c0-.2,0-.5,0-.7-.3.6-.8.8-1.4.8-1.2,0-1.7-1.1-1.7-2.3h0c0-2,1.2-2.7,2.7-2.7h.4v-1.3c0-.7-.1-1.2-.8-1.2s-.8.5-.8,1.1v.2h-1.2v-.2c0-1.1.5-2.1,2-2.1s1.9.9,1.9,2.1v4.8ZM1421.5-611.2h-.4c-1,0-1.5.4-1.5,1.6h0c0,.9.2,1.5.9,1.5s1-.6,1-1.8v-1.2Z"/>
      <path d="M1426.4-610.3v.6c0,1,.4,1.6,1.1,1.6s1.1-.6,1.1-1.7-.3-1.8-1.4-2.6c-1.2-.9-1.8-1.4-1.8-3s.4-2.7,2.1-2.7c1.6,0,2.1,1.1,2.1,2.4v.5h-1.2v-.5c0-.9-.2-1.5-.9-1.5s-.9.6-.9,1.5.2,1.4,1.2,2.1c1.5,1.1,2,1.8,2,3.6s-.4,2.9-2.3,2.9-2.3-1.1-2.3-2.6v-.6h1.2Z"/>
      <path d="M1430.1-605.5c.9-1.6,1.8-3.5,1.8-6.5s-.7-4.8-1.8-6.7h1.1c.8,1.4,1.7,3.6,1.7,6.7s-1,5.1-1.7,6.4h-1.1Z"/>
    </g>
    <g>
      <path d="M1172.6-448.5c-.9,1.6-1.8,3.5-1.8,6.5s.7,4.8,1.8,6.7h-1.1c-.8-1.4-1.7-3.6-1.7-6.7s1-5.1,1.7-6.4h1.1Z"/>
      <path d="M1173.2-442.5c0-1.3,0-2.1,0-2.8h1.1c0,.2,0,.7,0,1.3.3-1,1-1.4,1.8-1.4v1.4c-1,0-1.7.6-1.7,2.1v4.8h-1.2v-5.4Z"/>
      <path d="M1177.6-441v1.3c0,.8.2,1.7,1,1.7s.9-.6.9-1.4h0c0,0,1.1,0,1.1,0h0c0,1-.2,2.5-2.1,2.5s-2.1-1.1-2.1-2.8v-3.1c0-1.2.4-2.6,2.2-2.6s2.1,1.2,2.1,2.6v1.9h-3.1ZM1179.6-441.9v-1c0-.8-.1-1.5-1-1.5s-1,.6-1,1.5v1h2Z"/>
      <path d="M1182.8-437.8v3.4h-1.2v-8.6c0-1.1,0-1.9,0-2.4h1.1c0,.2,0,.5,0,.9.2-.6.7-1,1.5-1s1.7.8,1.7,2.4v3.5c0,1.8-.7,2.6-1.8,2.6s-1.2-.4-1.4-.8ZM1184.8-439.6v-3.5c0-1-.4-1.4-.9-1.4-.9,0-1.1.7-1.1,1.8v2.7c0,1,.1,1.9,1,1.9s1-.6,1-1.5Z"/>
      <path d="M1191.2-443v3.4c0,1.8-.9,2.6-2.2,2.6s-2.2-.8-2.2-2.5v-3.5c0-1.6.9-2.4,2.2-2.4s2.2.9,2.2,2.5ZM1188-443v3.6c0,.9.3,1.5,1,1.5s1-.4,1-1.5v-3.6c0-.8-.3-1.4-1-1.4s-1,.5-1,1.4Z"/>
      <path d="M1192.9-439.6v.4c0,.8.3,1.2.9,1.2s.9-.4.9-1.1-.2-1.2-1.2-1.8c-1.1-.7-1.6-1.3-1.6-2.4s.6-2.1,2-2.1,1.9.9,1.9,2.2v.4h-1.1v-.5c0-.7-.2-1.1-.8-1.1s-.8.4-.8,1,.2.9,1,1.5c1.2.8,1.8,1.4,1.8,2.7s-.7,2.3-2.1,2.3-2.1-1.1-2.1-2.2v-.4h1.2Z"/>
      <path d="M1196.8-445.3h1.2v8.2h-1.2v-8.2ZM1196.8-448.4h1.2v1.7h-1.2v-1.7Z"/>
      <path d="M1198.4-445.3h1v-2h1.2v2h1.2v1h-1.2v5.5c0,.4,0,.8.6.8s.4,0,.5,0v.9c-.3.1-.6.1-.9.1-.8,0-1.4-.3-1.4-1.6v-5.7h-1v-1Z"/>
      <path d="M1206.3-443v3.4c0,1.8-.9,2.6-2.2,2.6s-2.2-.8-2.2-2.5v-3.5c0-1.6.9-2.4,2.2-2.4s2.2.9,2.2,2.5ZM1203.2-443v3.6c0,.9.3,1.5,1,1.5s1-.4,1-1.5v-3.6c0-.8-.3-1.4-1-1.4s-1,.5-1,1.4Z"/>
      <path d="M1207.3-442.5c0-1.3,0-2.1,0-2.8h1.1c0,.2,0,.7,0,1.3.3-1,1-1.4,1.8-1.4v1.4c-1,0-1.7.6-1.7,2.1v4.8h-1.2v-5.4Z"/>
      <path d="M1210.7-445.3h1.2v8.2h-1.2v-8.2ZM1210.8-448.4h1.2v1.7h-1.2v-1.7Z"/>
      <path d="M1217.3-443v3.4c0,1.8-.9,2.6-2.2,2.6s-2.2-.8-2.2-2.5v-3.5c0-1.6.9-2.4,2.2-2.4s2.2.9,2.2,2.5ZM1214.1-443v3.6c0,.9.3,1.5,1,1.5s1-.4,1-1.5v-3.6c0-.8-.3-1.4-1-1.4s-1,.5-1,1.4Z"/>
      <path d="M1224.3-448.4v9.2c0,1,0,1.7,0,2.1h-1.1c0-.2,0-.6,0-.8-.2.5-.6.9-1.5.9-1.4,0-1.8-1.1-1.8-2.7v-3.4c0-1.5.6-2.4,1.9-2.4s1.1.3,1.3.6v-3.5h1.2ZM1221.1-443v3.3c0,1,.3,1.6.9,1.6s1.1-.8,1.1-2v-2.7c0-.9,0-1.7-1-1.7s-1,.6-1,1.5Z"/>
      <path d="M1226.4-441v1.3c0,.8.2,1.7,1,1.7s.9-.6.9-1.4h0c0,0,1.1,0,1.1,0h0c0,1-.2,2.5-2.1,2.5s-2.1-1.1-2.1-2.8v-3.1c0-1.2.4-2.6,2.2-2.6s2.1,1.2,2.1,2.6v1.9h-3.1ZM1228.4-441.9v-1c0-.8-.1-1.5-1-1.5s-1,.6-1,1.5v1h2Z"/>
      <path d="M1236.2-438.5c0,.6,0,1.2,0,1.4h-1.1c0-.2,0-.5,0-.7-.3.6-.8.8-1.4.8-1.2,0-1.7-1.1-1.7-2.3h0c0-2,1.2-2.7,2.7-2.7h.4v-1.3c0-.7-.1-1.2-.8-1.2s-.8.5-.8,1.1v.2h-1.2v-.2c0-1.1.5-2.1,2-2.1s1.9.9,1.9,2.1v4.8ZM1235.1-441h-.4c-1,0-1.5.4-1.5,1.6h0c0,.9.2,1.5.9,1.5s1-.6,1-1.8v-1.2Z"/>
      <path d="M1241.6-437.3c0,1.7-.2,3.1-2.3,3.1s-2.1-1.2-2.1-2h0s1.2,0,1.2,0h0c0,.5.2,1.1,1,1.1s1.1-.6,1.1-1.8v-1.1c-.2.6-.7.9-1.4.9-1.3,0-1.8-.9-1.8-2.5v-3.3c0-1.4.6-2.4,1.9-2.4s1.3.4,1.4.8c0-.2,0-.5,0-.7h1c0,.5,0,1.2,0,2.2v5.9ZM1238.4-443v3.1c0,1.1.3,1.6.9,1.6,1,0,1.1-.9,1.1-2v-2.4c0-.9-.1-1.7-1-1.7s-1,.5-1,1.5Z"/>
      <path d="M1247-439.3c0,1.1,0,1.8,0,2.2h-1.1c0-.2,0-.6,0-.9-.3.7-.8,1-1.5,1s-1.6-.3-1.6-2.1v-6.3h1.2v6c0,1,.3,1.4.9,1.4s1.1-.3,1.1-1.9v-5.4h1.2v6Z"/>
      <path d="M1252.1-438.5c0,.6,0,1.2,0,1.4h-1.1c0-.2,0-.5,0-.7-.3.6-.8.8-1.4.8-1.2,0-1.7-1.1-1.7-2.3h0c0-2,1.2-2.7,2.7-2.7h.4v-1.3c0-.7-.1-1.2-.8-1.2s-.8.5-.8,1.1v.2h-1.2v-.2c0-1.1.5-2.1,2-2.1s1.9.9,1.9,2.1v4.8ZM1250.9-441h-.4c-1,0-1.5.4-1.5,1.6h0c0,.9.2,1.5.9,1.5s1-.6,1-1.8v-1.2Z"/>
      <path d="M1258.2-437.9c-.2.6-.7.9-1.5.9-1.5,0-1.7-1.4-1.7-2.8v-3.1c0-1.6.6-2.7,1.9-2.7s1.2.4,1.3.8c0-.2,0-.4,0-.6h1.1c0,.5,0,1.3,0,2.5v8.6h-1.2v-3.6ZM1256.1-442.8v3.2c0,.9.2,1.6,1,1.6s1.1-1,1.1-2v-2.6c0-.9,0-1.8-1-1.8s-1,.7-1,1.6Z"/>
      <path d="M1264.9-439.3c0,1.1,0,1.8,0,2.2h-1.1c0-.2,0-.6,0-.9-.3.7-.8,1-1.5,1s-1.6-.3-1.6-2.1v-6.3h1.2v6c0,1,.3,1.4.9,1.4s1.1-.3,1.1-1.9v-5.4h1.2v6Z"/>
      <path d="M1267-441v1.3c0,.8.2,1.7,1,1.7s.9-.6.9-1.4h0c0,0,1.1,0,1.1,0h0c0,1-.2,2.5-2.1,2.5s-2.1-1.1-2.1-2.8v-3.1c0-1.2.4-2.6,2.2-2.6s2.1,1.2,2.1,2.6v1.9h-3.1ZM1269-441.9v-1c0-.8-.1-1.5-1-1.5s-1,.6-1,1.5v1h2Z"/>
      <path d="M1203.9-417.7v-11.3h1.2v11.3h-1.2Z"/>
      <path d="M1207.2-421.6v1.3c0,.8.2,1.7,1,1.7s.9-.6.9-1.4h0c0,0,1.1,0,1.1,0h0c0,1-.2,2.5-2.1,2.5s-2.1-1.1-2.1-2.8v-3.1c0-1.2.4-2.6,2.2-2.6s2.1,1.2,2.1,2.6v1.9h-3.1ZM1209.2-422.5v-1c0-.8-.1-1.5-1-1.5s-1,.6-1,1.5v1h2Z"/>
      <path d="M1211.3-423.6c0-1.5,0-2,0-2.4h1.1c0,.2,0,.5,0,.8.2-.6.7-.9,1.4-.9s1.1.3,1.3,1c.3-.5.7-1,1.5-1s1.6.4,1.6,1.9v6.4h-1.2v-6.2c0-.6-.1-1.1-.8-1.1s-1,.7-1,1.6v5.7h-1.2v-6.1c0-.9-.2-1.2-.8-1.2s-.9.7-.9,1.6v5.7h-1.2v-5.9Z"/>
      <path d="M1219.5-429h1.2v3.8c.2-.5.7-.9,1.5-.9,1.2,0,1.7,1,1.7,2.4v3.2c0,1.7-.4,2.9-1.9,2.9s-1.2-.4-1.4-.9c0,.3,0,.5,0,.8h-1.1c0-.5,0-1.2,0-2.2v-9.1ZM1222.7-420.3v-3.2c0-.9-.2-1.5-.9-1.5s-1.1.9-1.1,2v2.5c0,1.2.3,1.8,1.1,1.8s1-.5,1-1.7Z"/>
      <path d="M1224.8-423.2c0-1.3,0-2.1,0-2.8h1.1c0,.2,0,.7,0,1.3.3-1,1-1.4,1.8-1.4v1.4c-1,0-1.7.6-1.7,2.1v4.8h-1.2v-5.4Z"/>
      <path d="M1232.1-419.1c0,.6,0,1.2,0,1.4h-1.1c0-.2,0-.5,0-.7-.3.6-.8.8-1.4.8-1.2,0-1.7-1.1-1.7-2.3h0c0-2,1.2-2.7,2.7-2.7h.4v-1.3c0-.7-.1-1.2-.8-1.2s-.8.5-.8,1.1v.2h-1.2v-.2c0-1.1.5-2.1,2-2.1s1.9.9,1.9,2.1v4.8ZM1230.9-421.7h-.4c-1,0-1.5.4-1.5,1.6h0c0,.9.2,1.5.9,1.5s1-.6,1-1.8v-1.2Z"/>
      <path d="M1234.7-416c.9-1.6,1.8-3.5,1.8-6.5s-.7-4.8-1.8-6.7h1.1c.8,1.4,1.7,3.6,1.7,6.7s-1,5.1-1.7,6.4h-1.1Z"/>
    </g>
  </g>
  <g id="Swatch_Info_Layer">
    <g>
      <g>
        <text class="st13" transform="translate(811.8 697.8)"><tspan class="st12" x="0" y="0" xml:space="preserve">CMYK        </tspan><tspan class="st3" x="66.1" y="0">75, 68, 67, 90</tspan></text>
        <text class="st13" transform="translate(811.8 674)"><tspan class="st12" x="0" y="0" xml:space="preserve">RGB            </tspan><tspan class="st3" x="67.8" y="0">0, 0, 0</tspan></text>
        <text class="st13" transform="translate(811.8 650.2)"><tspan class="st12" x="0" y="0" xml:space="preserve">HEX            </tspan><tspan class="st3" x="67.6" y="0">#000000</tspan></text>
        <rect x="811.8" y="494.2" width="132.2" height="132.2"/>
      </g>
      <g>
        <text class="st13" transform="translate(617.8 697.8)"><tspan class="st12" x="0" y="0" xml:space="preserve">CMYK        </tspan><tspan class="st3" x="66.1" y="0">52, 38, 0, 0</tspan></text>
        <text class="st13" transform="translate(617.8 674)"><tspan class="st12" x="0" y="0" xml:space="preserve">RGB            </tspan><tspan class="st3" x="67.8" y="0">119, 139, 255</tspan></text>
        <text class="st13" transform="translate(617.8 650.2)"><tspan class="st12" x="0" y="0" xml:space="preserve">HEX            </tspan><tspan class="st3" x="67.6" y="0">#778BFF</tspan></text>
        <rect class="st7" x="617.8" y="494.2" width="132.2" height="132.2"/>
      </g>
      <g>
        <text class="st13" transform="translate(423.8 697.8)"><tspan class="st12" x="0" y="0" xml:space="preserve">CMYK        </tspan><tspan class="st3" x="66.1" y="0">66, 0, 25, 0</tspan></text>
        <text class="st13" transform="translate(423.8 674)"><tspan class="st12" x="0" y="0" xml:space="preserve">RGB            </tspan><tspan class="st3" x="67.8" y="0">18, 255, 232</tspan></text>
        <text class="st13" transform="translate(423.8 650.2)"><tspan class="st12" x="0" y="0" xml:space="preserve">HEX            </tspan><tspan class="st3" x="67.6" y="0">#12FFE8</tspan></text>
        <rect class="st14" x="423.8" y="494.2" width="132.2" height="132.2"/>
      </g>
      <g>
        <text class="st13" transform="translate(229.7 697.8)"><tspan class="st12" x="0" y="0" xml:space="preserve">CMYK        </tspan><tspan class="st3" x="66.1" y="0">72, 0, 54, 0</tspan></text>
        <text class="st13" transform="translate(229.7 674)"><tspan class="st12" x="0" y="0" xml:space="preserve">RGB            </tspan><tspan class="st3" x="67.8" y="0">0, 232, 160</tspan></text>
        <text class="st13" transform="translate(229.7 650.2)"><tspan class="st12" x="0" y="0" xml:space="preserve">HEX            </tspan><tspan class="st3" x="67.6" y="0">#00E8A0</tspan></text>
        <rect class="st15" x="229.7" y="494.2" width="132.2" height="132.2"/>
      </g>
      <g>
        <text class="st13" transform="translate(35.7 697.8)"><tspan class="st12" x="0" y="0" xml:space="preserve">CMYK        </tspan><tspan class="st3" x="66.1" y="0">20, 0, 100, 0</tspan></text>
        <text class="st13" transform="translate(35.7 674)"><tspan class="st12" x="0" y="0" xml:space="preserve">RGB            </tspan><tspan class="st3" x="67.8" y="0">218, 255, 0</tspan></text>
        <text class="st13" transform="translate(35.7 650.2)"><tspan class="st12" x="0" y="0" xml:space="preserve">HEX            </tspan><tspan class="st5" x="67.6" y="0">#DAFF00</tspan></text>
        <rect class="st11" x="35.7" y="494.2" width="132.2" height="132.2"/>
      </g>
      <g>
        <text class="st13" transform="translate(-158.4 697.8)"><tspan class="st12" x="0" y="0" xml:space="preserve">CMYK        </tspan><tspan class="st3" x="66.1" y="0">0, 50, 95, 0</tspan></text>
        <text class="st13" transform="translate(-158.4 674)"><tspan class="st12" x="0" y="0" xml:space="preserve">RGB            </tspan><tspan class="st4" x="67.8" y="0">255, 147, 29</tspan></text>
        <text class="st13" transform="translate(-158.4 650.2)"><tspan class="st12" x="0" y="0" xml:space="preserve">HEX            </tspan><tspan class="st3" x="67.6" y="0">#FF931D</tspan></text>
        <rect class="st17" x="-158.4" y="494.2" width="132.2" height="132.2"/>
      </g>
    </g>
  </g>
</svg>